<svg width="509" height="406" viewBox="0 0 509 406" fill="none" xmlns="http://www.w3.org/2000/svg">
<g clip-path="url(#clip0_1806_15601)">
<g filter="url(#filter0_d_1806_15601)">
<rect y="114.172" width="509.699" height="292.004" rx="10.4661" fill="white"/>
</g>
<path opacity="0.2" d="M0 149.757H509.699V395.71C509.699 401.491 505.013 406.176 499.233 406.176H10.4661C4.68582 406.176 0 401.49 0 395.71V149.757Z" fill="#EBF7FF"/>
<rect x="25.1187" y="174.876" width="214.555" height="206.182" rx="10.4661" fill="white"/>
<rect x="87.2119" y="359.8" width="128.733" height="8.37288" rx="4.18644" fill="#EAF4F9"/>
<rect x="48" y="359.8" width="27.2119" height="8.37288" rx="4.18644" fill="#EAF4F9"/>
<rect x="87.2119" y="339.427" width="128.733" height="8.37288" rx="4.18644" fill="#C2DCE9"/>
<rect x="48" y="339.427" width="27.2119" height="8.37288" rx="4.18644" fill="#C2DCE9"/>
<path d="M50.2378 318.261C70.0615 318.261 67.7192 279.672 87.5429 279.672C107.367 279.672 105.021 289.962 124.844 289.962C144.668 289.962 141.614 306.868 161.438 306.868C181.262 306.868 184.62 315.552 204.443 315.552" stroke="#FFAE00" stroke-width="2.16585" stroke-linecap="round"/>
<path d="M50.2373 318.261C69.6065 318.261 72.0807 291.433 91.4499 291.433C110.819 291.433 107.608 270.117 126.977 270.117C146.346 270.117 145.976 300.253 165.345 300.253C184.714 300.253 185.766 315.442 205.136 315.442" stroke="#0097FE" stroke-width="2.16585" stroke-linecap="round"/>
<rect x="50.2373" y="251.278" width="131.873" height="6.27966" rx="3.13983" fill="#0097FE"/>
<path d="M61.323 238.769C59.5591 238.769 58.0743 238.445 56.8686 237.798C55.6629 237.15 54.6917 236.28 53.9549 235.185C53.2181 234.091 52.6822 232.875 52.3473 231.535C52.0347 230.195 51.8784 228.822 51.8784 227.415C51.8784 224.803 52.2468 222.537 52.9836 220.617C53.7204 218.674 54.781 217.178 56.1653 216.129C57.5496 215.057 59.2242 214.521 61.189 214.521C62.7966 214.521 64.1586 214.845 65.275 215.492C66.4137 216.118 67.2957 216.944 67.9208 217.971C68.546 218.998 68.9144 220.103 69.0261 221.287H65.0406C64.8396 220.259 64.4042 219.467 63.7344 218.909C63.0646 218.35 62.2049 218.071 61.1555 218.071C59.6596 218.071 58.4539 218.763 57.5385 220.148C56.623 221.51 56.1318 223.597 56.0648 226.411C56.6007 225.495 57.4045 224.736 58.4762 224.133C59.5479 223.53 60.7425 223.229 62.0598 223.229C63.3548 223.229 64.5717 223.542 65.7104 224.167C66.8491 224.792 67.7645 225.674 68.4567 226.813C69.1712 227.951 69.5284 229.291 69.5284 230.832C69.5284 232.238 69.1823 233.544 68.4902 234.75C67.8204 235.956 66.8603 236.927 65.6099 237.664C64.3819 238.401 62.9529 238.769 61.323 238.769ZM61.0886 235.085C62.3389 235.085 63.366 234.705 64.1698 233.946C64.9959 233.165 65.409 232.182 65.409 230.999C65.409 229.749 64.9959 228.744 64.1698 227.985C63.3437 227.226 62.2943 226.846 61.0216 226.846C60.1955 226.846 59.4475 227.036 58.7776 227.415C58.1301 227.773 57.6166 228.264 57.237 228.889C56.8575 229.492 56.6677 230.173 56.6677 230.932C56.6677 232.138 57.0807 233.131 57.9069 233.913C58.7553 234.694 59.8159 235.085 61.0886 235.085ZM81.009 238.769C79.4014 238.769 77.9501 238.49 76.6551 237.932C75.36 237.351 74.3218 236.536 73.5403 235.487C72.7812 234.438 72.4016 233.221 72.4016 231.836C72.4016 230.407 72.77 229.157 73.5068 228.085C74.266 227.014 75.2596 226.243 76.4876 225.774C75.4159 225.305 74.5674 224.636 73.9422 223.765C73.3171 222.872 73.0045 221.878 73.0045 220.784C73.0045 219.668 73.3059 218.641 73.9087 217.703C74.5116 216.743 75.4047 215.973 76.5881 215.392C77.7938 214.811 79.2674 214.521 81.009 214.521C82.7505 214.521 84.213 214.811 85.3963 215.392C86.5797 215.973 87.4728 216.743 88.0757 217.703C88.6785 218.641 88.9799 219.668 88.9799 220.784C88.9799 221.856 88.6562 222.849 88.0087 223.765C87.3835 224.658 86.5462 225.328 85.4968 225.774C86.7472 226.243 87.7407 227.014 88.4776 228.085C89.2144 229.157 89.5828 230.407 89.5828 231.836C89.5828 233.221 89.2032 234.438 88.4441 235.487C87.6849 236.536 86.6467 237.351 85.3294 237.932C84.0344 238.49 82.5942 238.769 81.009 238.769ZM81.009 224.502C82.17 224.502 83.0854 224.2 83.7553 223.597C84.4251 222.995 84.76 222.224 84.76 221.287C84.76 220.259 84.4251 219.456 83.7553 218.875C83.1078 218.295 82.1923 218.004 81.009 218.004C79.8033 218.004 78.8767 218.295 78.2292 218.875C77.5817 219.456 77.2579 220.259 77.2579 221.287C77.2579 222.247 77.5817 223.028 78.2292 223.631C78.899 224.211 79.8256 224.502 81.009 224.502ZM81.009 235.185C82.4379 235.185 83.5208 234.839 84.2576 234.147C84.9944 233.433 85.3628 232.54 85.3628 231.468C85.3628 230.285 84.9721 229.358 84.1906 228.688C83.4315 228.018 82.3709 227.683 81.009 227.683C79.647 227.683 78.5641 228.018 77.7603 228.688C76.9788 229.358 76.5881 230.285 76.5881 231.468C76.5881 232.54 76.9565 233.433 77.6933 234.147C78.4524 234.839 79.5577 235.185 81.009 235.185ZM97.6176 226.444C96.5459 226.444 95.5746 226.21 94.7038 225.741C93.8331 225.25 93.1409 224.558 92.6274 223.664C92.1138 222.771 91.8571 221.711 91.8571 220.483C91.8571 219.255 92.1138 218.194 92.6274 217.301C93.1409 216.408 93.8331 215.727 94.7038 215.258C95.5746 214.767 96.557 214.521 97.6511 214.521C98.7228 214.521 99.6829 214.767 100.531 215.258C101.402 215.727 102.094 216.408 102.608 217.301C103.121 218.194 103.378 219.255 103.378 220.483C103.378 221.711 103.121 222.771 102.608 223.664C102.094 224.558 101.402 225.25 100.531 225.741C99.6606 226.21 98.6893 226.444 97.6176 226.444ZM96.3449 238.367L109.574 214.923H113.761L100.531 238.367H96.3449ZM97.6176 223.463C98.2651 223.463 98.8233 223.218 99.2922 222.727C99.7611 222.213 99.9955 221.465 99.9955 220.483C99.9955 219.5 99.7611 218.752 99.2922 218.239C98.8456 217.725 98.2874 217.468 97.6176 217.468C96.9478 217.468 96.3784 217.725 95.9095 218.239C95.463 218.752 95.2397 219.5 95.2397 220.483C95.2397 221.465 95.463 222.213 95.9095 222.727C96.3784 223.218 96.9478 223.463 97.6176 223.463ZM112.622 238.769C111.55 238.769 110.579 238.535 109.708 238.066C108.837 237.575 108.145 236.882 107.632 235.989C107.118 235.096 106.861 234.036 106.861 232.808C106.861 231.58 107.118 230.53 107.632 229.659C108.145 228.766 108.837 228.085 109.708 227.616C110.579 227.125 111.561 226.88 112.655 226.88C113.727 226.88 114.687 227.125 115.536 227.616C116.406 228.085 117.099 228.766 117.612 229.659C118.126 230.53 118.382 231.58 118.382 232.808C118.382 234.036 118.126 235.096 117.612 235.989C117.099 236.882 116.406 237.575 115.536 238.066C114.687 238.535 113.716 238.769 112.622 238.769ZM112.622 235.788C113.292 235.788 113.85 235.543 114.296 235.052C114.765 234.538 115 233.79 115 232.808C115 231.825 114.765 231.077 114.296 230.564C113.85 230.05 113.292 229.793 112.622 229.793C111.952 229.793 111.383 230.05 110.914 230.564C110.467 231.077 110.244 231.825 110.244 232.808C110.244 233.79 110.467 234.538 110.914 235.052C111.383 235.543 111.952 235.788 112.622 235.788Z" fill="#03133D"/>
<path d="M53.9674 199.586C53.3227 199.586 52.7617 199.469 52.2845 199.235C51.8072 199 51.4388 198.674 51.1793 198.255C50.9197 197.836 50.7899 197.351 50.7899 196.798H51.8951C51.8951 197.141 51.9747 197.46 52.1338 197.753C52.2928 198.037 52.5231 198.268 52.8245 198.443C53.1343 198.611 53.5153 198.695 53.9674 198.695C54.5619 198.695 55.0224 198.552 55.3489 198.268C55.6755 197.983 55.8388 197.627 55.8388 197.2C55.8388 196.848 55.7634 196.568 55.6127 196.359C55.462 196.141 55.2568 195.965 54.9973 195.831C54.7461 195.697 54.4531 195.58 54.1181 195.479C53.7916 195.379 53.4483 195.266 53.0883 195.14C52.4101 194.906 51.9077 194.617 51.5812 194.274C51.2546 193.922 51.0913 193.466 51.0913 192.905C51.083 192.436 51.1918 192.021 51.4179 191.661C51.6439 191.293 51.9621 191.008 52.3724 190.807C52.791 190.598 53.285 190.493 53.8544 190.493C54.4154 190.493 54.901 190.598 55.3113 190.807C55.7299 191.017 56.0523 191.305 56.2783 191.674C56.5128 192.042 56.6342 192.461 56.6426 192.93H55.5373C55.5373 192.687 55.4745 192.448 55.3489 192.214C55.2234 191.971 55.0308 191.774 54.7712 191.624C54.52 191.473 54.2019 191.398 53.8167 191.398C53.3395 191.389 52.9459 191.511 52.6361 191.762C52.3347 192.013 52.184 192.36 52.184 192.804C52.184 193.181 52.2887 193.47 52.498 193.671C52.7157 193.872 53.0171 194.039 53.4023 194.173C53.7874 194.299 54.2312 194.445 54.7335 194.613C55.1522 194.763 55.529 194.939 55.8639 195.14C56.1988 195.341 56.4584 195.601 56.6426 195.919C56.8351 196.237 56.9314 196.643 56.9314 197.137C56.9314 197.556 56.8226 197.954 56.6049 198.33C56.3872 198.699 56.0565 199 55.6127 199.235C55.1773 199.469 54.6289 199.586 53.9674 199.586ZM60.437 199.586C59.9179 199.586 59.4867 199.498 59.1434 199.323C58.8001 199.147 58.5448 198.912 58.3773 198.619C58.2099 198.326 58.1261 198.008 58.1261 197.665C58.1261 197.028 58.3689 196.539 58.8546 196.195C59.3402 195.852 60.0017 195.68 60.8389 195.68H62.5219V195.605C62.5219 195.061 62.3796 194.65 62.0949 194.374C61.8102 194.089 61.4292 193.947 60.952 193.947C60.5417 193.947 60.1859 194.052 59.8844 194.261C59.5914 194.462 59.4072 194.759 59.3318 195.153H58.2517C58.2936 194.701 58.4443 194.32 58.7039 194.01C58.9718 193.7 59.3025 193.466 59.696 193.307C60.0896 193.139 60.5082 193.055 60.952 193.055C61.8228 193.055 62.4758 193.29 62.9112 193.759C63.355 194.219 63.5769 194.835 63.5769 195.605V199.436H62.6349L62.5721 198.318C62.3963 198.669 62.1367 198.971 61.7935 199.222C61.4585 199.465 61.0064 199.586 60.437 199.586ZM60.6003 198.695C61.0022 198.695 61.3455 198.59 61.6302 198.381C61.9232 198.171 62.1451 197.899 62.2958 197.564C62.4465 197.229 62.5219 196.878 62.5219 196.509V196.497H60.9269C60.3073 196.497 59.8677 196.606 59.6081 196.823C59.3569 197.033 59.2313 197.296 59.2313 197.614C59.2313 197.941 59.3486 198.205 59.583 198.406C59.8258 198.598 60.1649 198.695 60.6003 198.695ZM65.1595 199.436V190.393H66.2145V199.436H65.1595ZM70.7444 199.586C70.1499 199.586 69.6225 199.452 69.1619 199.184C68.7014 198.908 68.3372 198.527 68.0693 198.041C67.8097 197.556 67.6799 196.982 67.6799 196.321C67.6799 195.668 67.8097 195.098 68.0693 194.613C68.3288 194.119 68.6889 193.738 69.1494 193.47C69.6183 193.194 70.1583 193.055 70.7695 193.055C71.3724 193.055 71.8915 193.194 72.3269 193.47C72.7707 193.738 73.1098 194.094 73.3442 194.537C73.5786 194.981 73.6959 195.458 73.6959 195.969C73.6959 196.061 73.6917 196.153 73.6833 196.245C73.6833 196.338 73.6833 196.442 73.6833 196.559H68.7224C68.7475 197.037 68.8563 197.434 69.0489 197.753C69.2499 198.062 69.4969 198.297 69.7899 198.456C70.0913 198.615 70.4095 198.695 70.7444 198.695C71.1798 198.695 71.544 198.594 71.8371 198.393C72.1301 198.192 72.3436 197.92 72.4776 197.577H73.52C73.3526 198.154 73.0302 198.636 72.553 199.021C72.0841 199.398 71.4812 199.586 70.7444 199.586ZM70.7444 193.947C70.242 193.947 69.7941 194.102 69.4006 194.412C69.0154 194.713 68.7935 195.157 68.7349 195.743H72.6534C72.6283 195.182 72.4357 194.743 72.0757 194.424C71.7157 194.106 71.2719 193.947 70.7444 193.947ZM77.4804 199.586C76.7352 199.586 76.1157 199.398 75.6217 199.021C75.1277 198.644 74.8388 198.134 74.7551 197.489H75.8352C75.9021 197.815 76.0738 198.1 76.3501 198.343C76.6348 198.577 77.0157 198.695 77.493 198.695C77.9368 198.695 78.2633 198.602 78.4726 198.418C78.6819 198.226 78.7866 198 78.7866 197.74C78.7866 197.363 78.6485 197.112 78.3721 196.986C78.1042 196.861 77.7232 196.748 77.2292 196.647C76.8943 196.58 76.5594 196.484 76.2245 196.359C75.8896 196.233 75.6091 196.057 75.383 195.831C75.157 195.597 75.0439 195.291 75.0439 194.914C75.0439 194.37 75.2449 193.926 75.6468 193.583C76.057 193.231 76.6097 193.055 77.3046 193.055C77.9661 193.055 78.5061 193.223 78.9248 193.558C79.3518 193.884 79.5988 194.353 79.6658 194.964H78.6233C78.5815 194.646 78.4433 194.399 78.2089 194.223C77.9828 194.039 77.6772 193.947 77.292 193.947C76.9153 193.947 76.6222 194.027 76.4129 194.186C76.2119 194.345 76.1115 194.554 76.1115 194.814C76.1115 195.065 76.2412 195.262 76.5008 195.404C76.7687 195.546 77.1288 195.668 77.5809 195.768C77.9661 195.852 78.3303 195.957 78.6736 196.082C79.0252 196.199 79.3099 196.379 79.5276 196.622C79.7537 196.857 79.8667 197.2 79.8667 197.652C79.8751 198.213 79.6616 198.678 79.2262 199.046C78.7992 199.406 78.2172 199.586 77.4804 199.586ZM87.1593 199.436C86.5899 199.436 86.142 199.297 85.8154 199.021C85.4889 198.745 85.3256 198.247 85.3256 197.527V194.098H84.2455V193.206H85.3256L85.4637 191.712H86.3806V193.206H88.2142V194.098H86.3806V197.527C86.3806 197.92 86.4601 198.188 86.6192 198.33C86.7783 198.464 87.0588 198.531 87.4607 198.531H88.1138V199.436H87.1593ZM89.5546 199.436V193.206H90.5091L90.597 194.399C90.7896 193.989 91.0826 193.662 91.4761 193.42C91.8697 193.177 92.3553 193.055 92.933 193.055V194.161H92.6441C92.2757 194.161 91.9366 194.228 91.6268 194.362C91.317 194.487 91.07 194.705 90.8858 195.015C90.7016 195.324 90.6095 195.751 90.6095 196.296V199.436H89.5546ZM96.6848 199.586C96.0903 199.586 95.5629 199.452 95.1023 199.184C94.6418 198.908 94.2776 198.527 94.0097 198.041C93.7501 197.556 93.6203 196.982 93.6203 196.321C93.6203 195.668 93.7501 195.098 94.0097 194.613C94.2692 194.119 94.6293 193.738 95.0898 193.47C95.5587 193.194 96.0987 193.055 96.7099 193.055C97.3128 193.055 97.8319 193.194 98.2673 193.47C98.7111 193.738 99.0502 194.094 99.2846 194.537C99.519 194.981 99.6363 195.458 99.6363 195.969C99.6363 196.061 99.6321 196.153 99.6237 196.245C99.6237 196.338 99.6237 196.442 99.6237 196.559H94.6628C94.6879 197.037 94.7967 197.434 94.9893 197.753C95.1903 198.062 95.4373 198.297 95.7303 198.456C96.0317 198.615 96.3499 198.695 96.6848 198.695C97.1202 198.695 97.4844 198.594 97.7775 198.393C98.0705 198.192 98.284 197.92 98.418 197.577H99.4604C99.293 198.154 98.9706 198.636 98.4934 199.021C98.0245 199.398 97.4216 199.586 96.6848 199.586ZM96.6848 193.947C96.1824 193.947 95.7345 194.102 95.341 194.412C94.9558 194.713 94.7339 195.157 94.6753 195.743H98.5938C98.5687 195.182 98.3761 194.743 98.0161 194.424C97.6561 194.106 97.2123 193.947 96.6848 193.947ZM101.035 199.436V193.206H101.989L102.052 194.324C102.253 193.93 102.542 193.621 102.918 193.395C103.295 193.168 103.722 193.055 104.2 193.055C104.936 193.055 105.522 193.281 105.958 193.734C106.402 194.177 106.623 194.864 106.623 195.793V199.436H105.568V195.906C105.568 194.609 105.033 193.96 103.961 193.96C103.425 193.96 102.977 194.156 102.617 194.55C102.265 194.935 102.09 195.488 102.09 196.208V199.436H101.035ZM111.048 199.586C110.428 199.586 109.884 199.444 109.415 199.159C108.954 198.875 108.594 198.485 108.335 197.991C108.084 197.497 107.958 196.936 107.958 196.308C107.958 195.68 108.088 195.124 108.347 194.638C108.607 194.144 108.967 193.759 109.428 193.482C109.888 193.198 110.432 193.055 111.06 193.055C111.571 193.055 112.023 193.16 112.417 193.369C112.81 193.579 113.116 193.872 113.333 194.249V190.393H114.388V199.436H113.434L113.333 198.406C113.133 198.707 112.844 198.979 112.467 199.222C112.09 199.465 111.617 199.586 111.048 199.586ZM111.161 198.669C111.579 198.669 111.948 198.573 112.266 198.381C112.592 198.18 112.844 197.903 113.019 197.552C113.204 197.2 113.296 196.79 113.296 196.321C113.296 195.852 113.204 195.442 113.019 195.09C112.844 194.738 112.592 194.466 112.266 194.274C111.948 194.073 111.579 193.972 111.161 193.972C110.75 193.972 110.382 194.073 110.055 194.274C109.737 194.466 109.486 194.738 109.302 195.09C109.126 195.442 109.038 195.852 109.038 196.321C109.038 196.79 109.126 197.2 109.302 197.552C109.486 197.903 109.737 198.18 110.055 198.381C110.382 198.573 110.75 198.669 111.161 198.669Z" fill="#354263"/>
<rect x="264.792" y="174.876" width="214.555" height="206.182" rx="10.4661" fill="white"/>
<rect x="328.212" y="359.8" width="128.733" height="8.37288" rx="4.18644" fill="#EAF4F9"/>
<rect x="289" y="359.8" width="27.2119" height="8.37288" rx="4.18644" fill="#EAF4F9"/>
<rect x="328.212" y="339.427" width="128.733" height="8.37288" rx="4.18644" fill="#C2DCE9"/>
<rect x="289" y="339.427" width="27.2119" height="8.37288" rx="4.18644" fill="#C2DCE9"/>
<path d="M376.735 193.365C371.015 192.149 365.057 192.775 359.715 195.154C354.373 197.532 349.922 201.54 346.998 206.604C344.074 211.668 342.829 217.528 343.44 223.343C344.051 229.159 346.488 234.631 350.4 238.977C354.313 243.322 359.501 246.317 365.221 247.533C370.94 248.749 376.898 248.123 382.24 245.744C387.582 243.366 392.034 239.358 394.957 234.294C397.881 229.23 399.126 223.37 398.515 217.555L370.978 220.449L376.735 193.365Z" fill="#0097FE"/>
<path d="M380.372 188.087C386.532 189.396 392.119 192.622 396.332 197.302C400.546 201.982 403.17 207.875 403.828 214.138L374.172 217.255L380.372 188.087Z" fill="#FFAE00"/>
<line opacity="0.3" x1="369.977" y1="273.258" x2="369.977" y2="317.215" stroke="#B4B6C4" stroke-width="1.04661"/>
<path d="M310.839 292.509C309.736 292.509 308.808 292.307 308.055 291.902C307.301 291.497 306.694 290.953 306.234 290.269C305.773 289.585 305.438 288.825 305.229 287.988C305.034 287.15 304.936 286.292 304.936 285.413C304.936 283.78 305.166 282.364 305.627 281.164C306.087 279.95 306.75 279.015 307.615 278.359C308.481 277.689 309.527 277.354 310.755 277.354C311.76 277.354 312.611 277.556 313.309 277.961C314.021 278.352 314.572 278.868 314.963 279.51C315.353 280.152 315.584 280.843 315.653 281.582H313.162C313.037 280.94 312.765 280.445 312.346 280.096C311.927 279.747 311.39 279.573 310.734 279.573C309.799 279.573 309.046 280.005 308.474 280.871C307.901 281.722 307.594 283.027 307.553 284.785C307.887 284.213 308.39 283.738 309.06 283.362C309.729 282.985 310.476 282.796 311.299 282.796C312.109 282.796 312.869 282.992 313.581 283.383C314.293 283.773 314.865 284.325 315.297 285.036C315.744 285.748 315.967 286.585 315.967 287.548C315.967 288.427 315.751 289.244 315.318 289.997C314.9 290.751 314.3 291.358 313.518 291.818C312.751 292.279 311.858 292.509 310.839 292.509ZM310.692 290.206C311.474 290.206 312.116 289.969 312.618 289.495C313.134 289.006 313.393 288.392 313.393 287.653C313.393 286.871 313.134 286.243 312.618 285.769C312.102 285.294 311.446 285.057 310.65 285.057C310.134 285.057 309.667 285.176 309.248 285.413C308.843 285.636 308.522 285.943 308.285 286.334C308.048 286.711 307.929 287.136 307.929 287.611C307.929 288.364 308.187 288.985 308.704 289.474C309.234 289.962 309.897 290.206 310.692 290.206ZM317.979 292.258V290.311C318.872 289.572 319.737 288.839 320.574 288.113C321.426 287.388 322.179 286.669 322.835 285.957C323.505 285.246 324.035 284.555 324.426 283.885C324.831 283.201 325.033 282.538 325.033 281.896C325.033 281.296 324.865 280.766 324.53 280.306C324.21 279.845 323.672 279.615 322.919 279.615C322.151 279.615 321.572 279.866 321.181 280.368C320.791 280.871 320.595 281.478 320.595 282.189H318C318.028 281.115 318.265 280.222 318.711 279.51C319.158 278.784 319.751 278.247 320.491 277.898C321.23 277.535 322.06 277.354 322.982 277.354C324.475 277.354 325.633 277.766 326.456 278.589C327.294 279.398 327.712 280.452 327.712 281.75C327.712 282.559 327.524 283.348 327.147 284.115C326.784 284.883 326.303 285.622 325.703 286.334C325.103 287.046 324.454 287.716 323.756 288.343C323.058 288.958 322.381 289.53 321.726 290.06H328.068V292.258H317.979ZM333.307 284.806C332.637 284.806 332.03 284.659 331.486 284.366C330.942 284.059 330.509 283.627 330.188 283.069C329.867 282.51 329.707 281.848 329.707 281.08C329.707 280.313 329.867 279.65 330.188 279.091C330.509 278.533 330.942 278.108 331.486 277.815C332.03 277.508 332.644 277.354 333.328 277.354C333.998 277.354 334.598 277.508 335.128 277.815C335.672 278.108 336.105 278.533 336.426 279.091C336.747 279.65 336.907 280.313 336.907 281.08C336.907 281.848 336.747 282.51 336.426 283.069C336.105 283.627 335.672 284.059 335.128 284.366C334.584 284.659 333.977 284.806 333.307 284.806ZM332.512 292.258L340.78 277.605H343.396L335.128 292.258H332.512ZM333.307 282.943C333.712 282.943 334.061 282.789 334.354 282.482C334.647 282.162 334.793 281.694 334.793 281.08C334.793 280.466 334.647 279.999 334.354 279.678C334.075 279.357 333.726 279.196 333.307 279.196C332.888 279.196 332.533 279.357 332.24 279.678C331.961 279.999 331.821 280.466 331.821 281.08C331.821 281.694 331.961 282.162 332.24 282.482C332.533 282.789 332.888 282.943 333.307 282.943ZM342.685 292.509C342.015 292.509 341.408 292.362 340.864 292.069C340.319 291.762 339.887 291.33 339.566 290.772C339.245 290.213 339.084 289.551 339.084 288.783C339.084 288.016 339.245 287.36 339.566 286.815C339.887 286.257 340.319 285.832 340.864 285.539C341.408 285.232 342.022 285.078 342.706 285.078C343.376 285.078 343.976 285.232 344.506 285.539C345.05 285.832 345.483 286.257 345.804 286.815C346.125 287.36 346.285 288.016 346.285 288.783C346.285 289.551 346.125 290.213 345.804 290.772C345.483 291.33 345.05 291.762 344.506 292.069C343.976 292.362 343.369 292.509 342.685 292.509ZM342.685 290.646C343.103 290.646 343.452 290.493 343.731 290.186C344.024 289.865 344.171 289.397 344.171 288.783C344.171 288.169 344.024 287.702 343.731 287.381C343.452 287.06 343.103 286.899 342.685 286.899C342.266 286.899 341.91 287.06 341.617 287.381C341.338 287.702 341.199 288.169 341.199 288.783C341.199 289.397 341.338 289.865 341.617 290.186C341.91 290.493 342.266 290.646 342.685 290.646Z" fill="#060C3C"/>
<path d="M313.67 313.577C312.609 313.577 311.778 313.281 311.175 312.689C310.572 312.098 310.27 311.277 310.27 310.228H311.694C311.694 310.819 311.839 311.316 312.129 311.718C312.419 312.12 312.927 312.321 313.653 312.321C314.356 312.321 314.842 312.126 315.11 311.735C315.389 311.344 315.529 310.859 315.529 310.278V301.654H316.935V310.278C316.935 311.316 316.645 312.126 316.064 312.706C315.495 313.287 314.697 313.577 313.67 313.577ZM322.361 313.577C321.379 313.577 320.597 313.281 320.017 312.689C319.436 312.087 319.146 311.166 319.146 309.926V305.07H320.553V309.776C320.553 311.506 321.262 312.371 322.679 312.371C323.405 312.371 324.002 312.114 324.471 311.601C324.951 311.076 325.191 310.334 325.191 309.374V305.07H326.598V313.376H325.325L325.225 311.886C324.968 312.41 324.583 312.823 324.069 313.125C323.567 313.426 322.998 313.577 322.361 313.577ZM328.913 313.376V301.319H330.32V313.376H328.913ZM333.53 317.06L335.589 312.572H335.104L331.805 305.07H333.329L336.075 311.534L338.989 305.07H340.446L335.003 317.06H333.53Z" fill="#5D6180"/>
<path d="M400.845 292.509C399.882 292.509 399.01 292.342 398.228 292.007C397.447 291.658 396.819 291.127 396.344 290.416C395.87 289.704 395.619 288.811 395.591 287.736H398.228C398.242 288.448 398.473 289.048 398.919 289.537C399.38 290.011 400.021 290.248 400.845 290.248C401.626 290.248 402.226 290.032 402.645 289.599C403.064 289.167 403.273 288.623 403.273 287.967C403.273 287.199 402.994 286.62 402.436 286.229C401.891 285.825 401.187 285.622 400.322 285.622H399.233V283.424H400.342C401.054 283.424 401.647 283.257 402.122 282.922C402.596 282.587 402.833 282.092 402.833 281.436C402.833 280.892 402.652 280.459 402.289 280.138C401.94 279.803 401.452 279.636 400.824 279.636C400.14 279.636 399.603 279.838 399.212 280.243C398.835 280.647 398.626 281.143 398.584 281.729H395.968C396.023 280.375 396.491 279.308 397.37 278.526C398.263 277.745 399.414 277.354 400.824 277.354C401.829 277.354 402.673 277.535 403.357 277.898C404.054 278.247 404.578 278.715 404.927 279.301C405.289 279.887 405.471 280.536 405.471 281.247C405.471 282.071 405.241 282.769 404.78 283.341C404.334 283.899 403.775 284.276 403.106 284.471C403.929 284.638 404.599 285.043 405.115 285.685C405.631 286.313 405.889 287.108 405.889 288.071C405.889 288.881 405.694 289.62 405.303 290.29C404.913 290.96 404.341 291.497 403.587 291.902C402.847 292.307 401.933 292.509 400.845 292.509ZM413.691 292.509C412.686 292.509 411.779 292.335 410.97 291.986C410.16 291.623 409.512 291.114 409.023 290.458C408.549 289.802 408.311 289.041 408.311 288.176C408.311 287.283 408.542 286.501 409.002 285.832C409.477 285.162 410.098 284.68 410.865 284.387C410.195 284.094 409.665 283.676 409.274 283.131C408.884 282.573 408.688 281.952 408.688 281.268C408.688 280.571 408.877 279.929 409.253 279.343C409.63 278.743 410.188 278.261 410.928 277.898C411.681 277.535 412.603 277.354 413.691 277.354C414.779 277.354 415.693 277.535 416.433 277.898C417.173 278.261 417.731 278.743 418.108 279.343C418.484 279.929 418.673 280.571 418.673 281.268C418.673 281.938 418.471 282.559 418.066 283.131C417.675 283.69 417.152 284.108 416.496 284.387C417.277 284.68 417.898 285.162 418.359 285.832C418.819 286.501 419.05 287.283 419.05 288.176C419.05 289.041 418.812 289.802 418.338 290.458C417.863 291.114 417.215 291.623 416.391 291.986C415.582 292.335 414.682 292.509 413.691 292.509ZM413.691 283.592C414.417 283.592 414.989 283.403 415.407 283.027C415.826 282.65 416.035 282.168 416.035 281.582C416.035 280.94 415.826 280.438 415.407 280.075C415.003 279.712 414.431 279.531 413.691 279.531C412.937 279.531 412.358 279.712 411.954 280.075C411.549 280.438 411.347 280.94 411.347 281.582C411.347 282.182 411.549 282.671 411.954 283.048C412.372 283.41 412.951 283.592 413.691 283.592ZM413.691 290.269C414.584 290.269 415.261 290.053 415.721 289.62C416.182 289.174 416.412 288.616 416.412 287.946C416.412 287.206 416.168 286.627 415.68 286.208C415.205 285.79 414.542 285.58 413.691 285.58C412.84 285.58 412.163 285.79 411.661 286.208C411.172 286.627 410.928 287.206 410.928 287.946C410.928 288.616 411.158 289.174 411.619 289.62C412.093 290.053 412.784 290.269 413.691 290.269ZM424.699 284.806C424.03 284.806 423.422 284.659 422.878 284.366C422.334 284.059 421.901 283.627 421.58 283.069C421.26 282.51 421.099 281.848 421.099 281.08C421.099 280.313 421.26 279.65 421.58 279.091C421.901 278.533 422.334 278.108 422.878 277.815C423.422 277.508 424.037 277.354 424.72 277.354C425.39 277.354 425.99 277.508 426.52 277.815C427.065 278.108 427.497 278.533 427.818 279.091C428.139 279.65 428.3 280.313 428.3 281.08C428.3 281.848 428.139 282.51 427.818 283.069C427.497 283.627 427.065 284.059 426.52 284.366C425.976 284.659 425.369 284.806 424.699 284.806ZM423.904 292.258L432.172 277.605H434.789L426.52 292.258H423.904ZM424.699 282.943C425.104 282.943 425.453 282.789 425.746 282.482C426.039 282.162 426.186 281.694 426.186 281.08C426.186 280.466 426.039 279.999 425.746 279.678C425.467 279.357 425.118 279.196 424.699 279.196C424.281 279.196 423.925 279.357 423.632 279.678C423.353 279.999 423.213 280.466 423.213 281.08C423.213 281.694 423.353 282.162 423.632 282.482C423.925 282.789 424.281 282.943 424.699 282.943ZM434.077 292.509C433.407 292.509 432.8 292.362 432.256 292.069C431.712 291.762 431.279 291.33 430.958 290.772C430.637 290.213 430.477 289.551 430.477 288.783C430.477 288.016 430.637 287.36 430.958 286.815C431.279 286.257 431.712 285.832 432.256 285.539C432.8 285.232 433.414 285.078 434.098 285.078C434.768 285.078 435.368 285.232 435.898 285.539C436.442 285.832 436.875 286.257 437.196 286.815C437.517 287.36 437.677 288.016 437.677 288.783C437.677 289.551 437.517 290.213 437.196 290.772C436.875 291.33 436.442 291.762 435.898 292.069C435.368 292.362 434.761 292.509 434.077 292.509ZM434.077 290.646C434.496 290.646 434.845 290.493 435.124 290.186C435.417 289.865 435.563 289.397 435.563 288.783C435.563 288.169 435.417 287.702 435.124 287.381C434.845 287.06 434.496 286.899 434.077 286.899C433.658 286.899 433.302 287.06 433.009 287.381C432.73 287.702 432.591 288.169 432.591 288.783C432.591 289.397 432.73 289.865 433.009 290.186C433.302 290.493 433.658 290.646 434.077 290.646Z" fill="#060C3C"/>
<path d="M389.932 313.376L394.253 301.654H395.743L400.047 313.376H398.556L397.484 310.362H392.494L391.406 313.376H389.932ZM392.913 309.223H397.066L394.989 303.429L392.913 309.223ZM404.557 313.577C403.574 313.577 402.793 313.281 402.212 312.689C401.632 312.087 401.341 311.166 401.341 309.926V305.07H402.748V309.776C402.748 311.506 403.457 312.371 404.875 312.371C405.6 312.371 406.198 312.114 406.667 311.601C407.147 311.076 407.387 310.334 407.387 309.374V305.07H408.793V313.376H407.521L407.42 311.886C407.163 312.41 406.778 312.823 406.265 313.125C405.762 313.426 405.193 313.577 404.557 313.577ZM414.391 310.764C413.922 310.764 413.492 310.702 413.101 310.579L412.264 311.366C412.387 311.456 412.538 311.534 412.716 311.601C412.906 311.657 413.174 311.713 413.52 311.768C413.866 311.813 414.352 311.863 414.977 311.919C416.093 311.997 416.891 312.254 417.372 312.689C417.852 313.125 418.092 313.694 418.092 314.397C418.092 314.878 417.958 315.335 417.69 315.771C417.433 316.206 417.031 316.563 416.484 316.842C415.948 317.121 415.256 317.261 414.408 317.261C413.66 317.261 412.995 317.161 412.415 316.96C411.834 316.77 411.382 316.474 411.058 316.072C410.735 315.681 410.573 315.185 410.573 314.582C410.573 314.269 410.656 313.929 410.824 313.56C410.991 313.203 411.304 312.862 411.762 312.539C411.516 312.438 411.304 312.332 411.125 312.221C410.958 312.098 410.802 311.964 410.656 311.819V311.433L412.08 310.027C411.421 309.469 411.092 308.732 411.092 307.816C411.092 307.269 411.22 306.773 411.477 306.326C411.734 305.879 412.108 305.528 412.599 305.271C413.09 305.003 413.687 304.869 414.391 304.869C414.871 304.869 415.306 304.936 415.697 305.07H418.761V306.125L417.204 306.192C417.528 306.661 417.69 307.202 417.69 307.816C417.69 308.363 417.556 308.86 417.288 309.307C417.031 309.753 416.657 310.111 416.166 310.378C415.686 310.635 415.094 310.764 414.391 310.764ZM414.391 309.608C414.982 309.608 415.451 309.457 415.797 309.156C416.155 308.843 416.333 308.397 416.333 307.816C416.333 307.247 416.155 306.812 415.797 306.51C415.451 306.198 414.982 306.041 414.391 306.041C413.788 306.041 413.308 306.198 412.951 306.51C412.605 306.812 412.432 307.247 412.432 307.816C412.432 308.397 412.605 308.843 412.951 309.156C413.308 309.457 413.788 309.608 414.391 309.608ZM411.946 314.448C411.946 315.006 412.18 315.419 412.649 315.687C413.118 315.966 413.704 316.106 414.408 316.106C415.1 316.106 415.652 315.955 416.065 315.653C416.49 315.352 416.702 314.95 416.702 314.448C416.702 314.09 416.557 313.778 416.266 313.51C415.976 313.253 415.44 313.102 414.659 313.058C414.045 313.013 413.514 312.957 413.068 312.89C412.61 313.136 412.309 313.398 412.164 313.677C412.018 313.968 411.946 314.224 411.946 314.448ZM423.379 313.577C422.397 313.577 421.615 313.281 421.035 312.689C420.454 312.087 420.164 311.166 420.164 309.926V305.07H421.571V309.776C421.571 311.506 422.28 312.371 423.697 312.371C424.423 312.371 425.02 312.114 425.489 311.601C425.969 311.076 426.209 310.334 426.209 309.374V305.07H427.616V313.376H426.343L426.243 311.886C425.986 312.41 425.601 312.823 425.087 313.125C424.585 313.426 424.016 313.577 423.379 313.577ZM433.113 313.577C432.119 313.577 431.293 313.326 430.635 312.823C429.976 312.321 429.591 311.64 429.479 310.78H430.919C431.009 311.216 431.237 311.595 431.606 311.919C431.985 312.232 432.493 312.388 433.13 312.388C433.721 312.388 434.157 312.265 434.436 312.02C434.715 311.763 434.854 311.461 434.854 311.115C434.854 310.613 434.67 310.278 434.302 310.111C433.945 309.943 433.437 309.792 432.778 309.658C432.331 309.569 431.885 309.441 431.438 309.273C430.992 309.106 430.618 308.871 430.316 308.57C430.015 308.257 429.864 307.85 429.864 307.348C429.864 306.622 430.132 306.03 430.668 305.572C431.215 305.104 431.952 304.869 432.878 304.869C433.76 304.869 434.481 305.092 435.039 305.539C435.608 305.974 435.937 306.6 436.027 307.414H434.637C434.581 306.99 434.397 306.661 434.084 306.426C433.783 306.181 433.375 306.058 432.862 306.058C432.359 306.058 431.969 306.164 431.69 306.376C431.422 306.588 431.288 306.867 431.288 307.214C431.288 307.548 431.461 307.811 431.807 308.001C432.164 308.19 432.644 308.352 433.247 308.486C433.76 308.598 434.246 308.737 434.704 308.905C435.173 309.061 435.552 309.301 435.842 309.625C436.144 309.938 436.295 310.395 436.295 310.998C436.306 311.746 436.021 312.366 435.441 312.857C434.871 313.337 434.095 313.577 433.113 313.577ZM441.21 313.376C440.451 313.376 439.854 313.192 439.418 312.823C438.983 312.455 438.765 311.791 438.765 310.831V306.259H437.325V305.07H438.765L438.949 303.077H440.172V305.07H442.617V306.259H440.172V310.831C440.172 311.355 440.278 311.713 440.49 311.902C440.702 312.081 441.076 312.17 441.612 312.17H442.483V313.376H441.21Z" fill="#5D6180"/>
<circle cx="31.3983" cy="133.011" r="6.27966" fill="#C58DF0"/>
<circle cx="56.517" cy="133.011" r="6.27966" fill="#FFCC5E"/>
<circle cx="81.6356" cy="133.011" r="6.27966" fill="#40E986"/>
<g filter="url(#filter1_d_1806_15601)">
<rect x="325" y="20" width="137" height="144" rx="9.44828" fill="white"/>
<rect x="339.172" y="129.336" width="23.6207" height="4.72414" rx="2.36207" fill="#C2DCE9"/>
<rect x="374.793" y="129.336" width="80.3103" height="4.72414" rx="2.36207" fill="#C2DCE9"/>
<rect x="339.172" y="146.061" width="23.6207" height="4.72414" rx="2.36207" fill="#EAF4F9"/>
<rect x="374.793" y="146.061" width="80.3103" height="4.72414" rx="2.36207" fill="#EAF4F9"/>
<rect x="339.172" y="75.3711" width="85.0345" height="4.72414" rx="2.36207" fill="#0097FE"/>
<path d="M339.172 111.888C351.869 111.888 350.369 89.1689 363.065 89.1689C375.761 89.1689 374.259 95.2273 386.955 95.2273C399.651 95.2273 397.696 105.18 410.392 105.18C423.088 105.18 425.239 110.293 437.935 110.293" stroke="#FFAE00" stroke-width="1.35123" stroke-linecap="round"/>
<path d="M339.173 111.888C351.578 111.888 353.163 96.0925 365.568 96.0925C377.973 96.0925 375.916 83.543 388.322 83.543C400.727 83.543 400.49 101.285 412.895 101.285C425.3 101.285 425.974 110.228 438.379 110.228" stroke="#0097FE" stroke-width="1.35123" stroke-linecap="round"/>
<path d="M346.209 70.7375C345.089 70.7375 344.147 70.532 343.382 70.121C342.616 69.71 342 69.1573 341.532 68.4629C341.064 67.7684 340.724 66.996 340.512 66.1457C340.313 65.2953 340.214 64.4237 340.214 63.5309C340.214 61.8727 340.448 60.4342 340.916 59.2154C341.383 57.9824 342.056 57.0328 342.935 56.3667C343.814 55.6864 344.877 55.3463 346.124 55.3463C347.144 55.3463 348.009 55.5518 348.717 55.9628C349.44 56.3596 350 56.884 350.397 57.5359C350.794 58.1879 351.028 58.8894 351.098 59.6405H348.569C348.441 58.9886 348.165 58.4855 347.74 58.1312C347.314 57.7769 346.769 57.5997 346.103 57.5997C345.153 57.5997 344.388 58.039 343.807 58.9177C343.226 59.7822 342.914 61.1074 342.871 62.8931C343.212 62.312 343.722 61.8302 344.402 61.4475C345.082 61.0649 345.84 60.8735 346.677 60.8735C347.499 60.8735 348.271 61.0719 348.994 61.4688C349.717 61.8656 350.298 62.4254 350.737 63.1482C351.191 63.871 351.417 64.7213 351.417 65.6992C351.417 66.5921 351.198 67.4212 350.758 68.1865C350.333 68.9518 349.724 69.5683 348.93 70.036C348.151 70.5037 347.244 70.7375 346.209 70.7375ZM346.06 68.3991C346.854 68.3991 347.506 68.1581 348.016 67.6763C348.54 67.1802 348.803 66.5567 348.803 65.8055C348.803 65.0119 348.54 64.3741 348.016 63.8922C347.492 63.4104 346.825 63.1695 346.018 63.1695C345.493 63.1695 345.018 63.2899 344.593 63.5309C344.182 63.7576 343.856 64.0694 343.615 64.4662C343.374 64.8489 343.254 65.2811 343.254 65.763C343.254 66.5283 343.516 67.159 344.041 67.655C344.579 68.1511 345.252 68.3991 346.06 68.3991ZM359.342 70.7375C358.322 70.7375 357.401 70.5604 356.579 70.2061C355.757 69.8376 355.098 69.3203 354.602 68.6542C354.12 67.9881 353.879 67.2157 353.879 66.337C353.879 65.43 354.113 64.6363 354.58 63.956C355.062 63.2757 355.693 62.7868 356.472 62.4892C355.792 62.1916 355.254 61.7664 354.857 61.2137C354.46 60.6468 354.261 60.0161 354.261 59.3216C354.261 58.613 354.453 57.9611 354.835 57.3659C355.218 56.7564 355.785 56.2675 356.536 55.899C357.301 55.5305 358.237 55.3463 359.342 55.3463C360.448 55.3463 361.376 55.5305 362.127 55.899C362.878 56.2675 363.445 56.7564 363.828 57.3659C364.211 57.9611 364.402 58.613 364.402 59.3216C364.402 60.0019 364.196 60.6326 363.785 61.2137C363.389 61.7806 362.857 62.2057 362.191 62.4892C362.985 62.7868 363.615 63.2757 364.083 63.956C364.551 64.6363 364.785 65.43 364.785 66.337C364.785 67.2157 364.544 67.9881 364.062 68.6542C363.58 69.3203 362.921 69.8376 362.085 70.2061C361.263 70.5604 360.349 70.7375 359.342 70.7375ZM359.342 61.6814C360.079 61.6814 360.66 61.49 361.086 61.1074C361.511 60.7247 361.723 60.2358 361.723 59.6405C361.723 58.9886 361.511 58.4784 361.086 58.1099C360.675 57.7414 360.093 57.5572 359.342 57.5572C358.577 57.5572 357.989 57.7414 357.578 58.1099C357.167 58.4784 356.961 58.9886 356.961 59.6405C356.961 60.2499 357.167 60.746 357.578 61.1286C358.003 61.4971 358.591 61.6814 359.342 61.6814ZM359.342 68.4629C360.249 68.4629 360.937 68.2432 361.404 67.8038C361.872 67.3503 362.106 66.7834 362.106 66.1031C362.106 65.352 361.858 64.7639 361.362 64.3387C360.88 63.9135 360.207 63.7009 359.342 63.7009C358.478 63.7009 357.79 63.9135 357.28 64.3387C356.784 64.7639 356.536 65.352 356.536 66.1031C356.536 66.7834 356.77 67.3503 357.238 67.8038C357.72 68.2432 358.421 68.4629 359.342 68.4629ZM370.522 62.9144C369.842 62.9144 369.226 62.7655 368.673 62.4679C368.12 62.1561 367.681 61.7168 367.355 61.1499C367.029 60.583 366.866 59.9098 366.866 59.1303C366.866 58.3508 367.029 57.6776 367.355 57.1107C367.681 56.5439 368.12 56.1116 368.673 55.814C369.226 55.5022 369.849 55.3463 370.544 55.3463C371.224 55.3463 371.833 55.5022 372.372 55.814C372.925 56.1116 373.364 56.5439 373.69 57.1107C374.016 57.6776 374.179 58.3508 374.179 59.1303C374.179 59.9098 374.016 60.583 373.69 61.1499C373.364 61.7168 372.925 62.1561 372.372 62.4679C371.819 62.7655 371.203 62.9144 370.522 62.9144ZM369.715 70.4824L378.112 55.6014H380.769L372.372 70.4824H369.715ZM370.522 61.0223C370.933 61.0223 371.288 60.8664 371.585 60.5546C371.883 60.2287 372.032 59.7539 372.032 59.1303C372.032 58.5067 371.883 58.032 371.585 57.706C371.302 57.38 370.948 57.217 370.522 57.217C370.097 57.217 369.736 57.38 369.438 57.706C369.155 58.032 369.013 58.5067 369.013 59.1303C369.013 59.7539 369.155 60.2287 369.438 60.5546C369.736 60.8664 370.097 61.0223 370.522 61.0223ZM380.046 70.7375C379.366 70.7375 378.749 70.5887 378.197 70.2911C377.644 69.9793 377.205 69.54 376.879 68.9731C376.553 68.4062 376.39 67.733 376.39 66.9535C376.39 66.174 376.553 65.5079 376.879 64.9552C377.205 64.3883 377.644 63.956 378.197 63.6584C378.749 63.3466 379.373 63.1907 380.067 63.1907C380.748 63.1907 381.357 63.3466 381.896 63.6584C382.448 63.956 382.888 64.3883 383.214 64.9552C383.54 65.5079 383.703 66.174 383.703 66.9535C383.703 67.733 383.54 68.4062 383.214 68.9731C382.888 69.54 382.448 69.9793 381.896 70.2911C381.357 70.5887 380.741 70.7375 380.046 70.7375ZM380.046 68.8455C380.471 68.8455 380.826 68.6896 381.109 68.3778C381.407 68.0519 381.556 67.5771 381.556 66.9535C381.556 66.3299 381.407 65.8551 381.109 65.5292C380.826 65.2032 380.471 65.0402 380.046 65.0402C379.621 65.0402 379.26 65.2032 378.962 65.5292C378.679 65.8551 378.537 66.3299 378.537 66.9535C378.537 67.5771 378.679 68.0519 378.962 68.3778C379.26 68.6896 379.621 68.8455 380.046 68.8455Z" fill="#03133D"/>
<path d="M341.277 39.7569C340.913 39.7569 340.597 39.6908 340.327 39.5585C340.058 39.4262 339.85 39.242 339.704 39.0058C339.557 38.7696 339.484 38.4956 339.484 38.1838H340.108C340.108 38.3775 340.153 38.557 340.242 38.7223C340.332 38.8829 340.462 39.0129 340.632 39.1121C340.807 39.2065 341.022 39.2538 341.277 39.2538C341.612 39.2538 341.872 39.1735 342.056 39.0129C342.241 38.8522 342.333 38.6515 342.333 38.4105C342.333 38.2121 342.29 38.0539 342.205 37.9358C342.12 37.8129 342.004 37.7137 341.858 37.6381C341.716 37.5625 341.551 37.4964 341.362 37.4397C341.178 37.383 340.984 37.3193 340.781 37.2484C340.398 37.1161 340.115 36.9531 339.931 36.7594C339.746 36.561 339.654 36.3036 339.654 35.987C339.65 35.7225 339.711 35.4887 339.838 35.2855C339.966 35.0777 340.146 34.917 340.377 34.8037C340.613 34.6855 340.892 34.6265 341.213 34.6265C341.53 34.6265 341.804 34.6855 342.035 34.8037C342.271 34.9218 342.453 35.0847 342.581 35.2926C342.713 35.5005 342.782 35.7367 342.786 36.0012H342.163C342.163 35.8642 342.127 35.7296 342.056 35.5973C341.986 35.4603 341.877 35.3493 341.73 35.2643C341.589 35.1792 341.409 35.1367 341.192 35.1367C340.923 35.132 340.701 35.2005 340.526 35.3422C340.356 35.4839 340.271 35.68 340.271 35.9304C340.271 36.1429 340.33 36.3059 340.448 36.4193C340.571 36.5327 340.741 36.6272 340.958 36.7028C341.175 36.7736 341.426 36.8563 341.709 36.9508C341.945 37.0358 342.158 37.135 342.347 37.2484C342.536 37.3618 342.682 37.5082 342.786 37.6877C342.895 37.8673 342.949 38.0964 342.949 38.3751C342.949 38.6113 342.888 38.8357 342.765 39.0483C342.642 39.2562 342.456 39.4262 342.205 39.5585C341.96 39.6908 341.65 39.7569 341.277 39.7569ZM344.927 39.7569C344.634 39.7569 344.391 39.7073 344.197 39.6081C344.004 39.5089 343.86 39.3766 343.765 39.2113C343.671 39.0459 343.623 38.8664 343.623 38.6727C343.623 38.3137 343.76 38.0373 344.034 37.8436C344.308 37.6499 344.682 37.5531 345.154 37.5531H346.104V37.5106C346.104 37.2035 346.023 36.972 345.863 36.8161C345.702 36.6555 345.487 36.5752 345.218 36.5752C344.986 36.5752 344.786 36.6343 344.615 36.7524C344.45 36.8657 344.346 37.0334 344.304 37.2555H343.694C343.718 37.0004 343.803 36.7854 343.949 36.6106C344.101 36.4358 344.287 36.3036 344.509 36.2138C344.731 36.1193 344.967 36.0721 345.218 36.0721C345.709 36.0721 346.078 36.2044 346.323 36.4689C346.574 36.7287 346.699 37.076 346.699 37.5106V39.6719H346.167L346.132 39.0412C346.033 39.2396 345.886 39.4097 345.693 39.5514C345.504 39.6884 345.248 39.7569 344.927 39.7569ZM345.019 39.2538C345.246 39.2538 345.44 39.1947 345.6 39.0766C345.766 38.9585 345.891 38.805 345.976 38.616C346.061 38.4271 346.104 38.2287 346.104 38.0208V38.0137H345.204C344.854 38.0137 344.606 38.0751 344.46 38.1979C344.318 38.316 344.247 38.4649 344.247 38.6444C344.247 38.8286 344.313 38.9774 344.445 39.0908C344.582 39.1995 344.774 39.2538 345.019 39.2538ZM347.592 39.6719V34.5698H348.187V39.6719H347.592ZM350.743 39.7569C350.407 39.7569 350.11 39.6813 349.85 39.5302C349.59 39.3743 349.385 39.1593 349.234 38.8853C349.087 38.6113 349.014 38.2877 349.014 37.9145C349.014 37.546 349.087 37.2248 349.234 36.9508C349.38 36.672 349.583 36.4571 349.843 36.3059C350.107 36.15 350.412 36.0721 350.757 36.0721C351.097 36.0721 351.39 36.15 351.636 36.3059C351.886 36.4571 352.077 36.6579 352.21 36.9083C352.342 37.1586 352.408 37.4279 352.408 37.7161C352.408 37.768 352.406 37.82 352.401 37.872C352.401 37.9239 352.401 37.983 352.401 38.0491H349.602C349.616 38.3184 349.678 38.5428 349.786 38.7223C349.9 38.8971 350.039 39.0294 350.204 39.1192C350.374 39.2089 350.554 39.2538 350.743 39.2538C350.989 39.2538 351.194 39.1971 351.359 39.0837C351.525 38.9703 351.645 38.8168 351.721 38.6231H352.309C352.214 38.9491 352.033 39.2207 351.763 39.438C351.499 39.6506 351.159 39.7569 350.743 39.7569ZM350.743 36.5752C350.459 36.5752 350.207 36.6626 349.985 36.8374C349.767 37.0075 349.642 37.2578 349.609 37.5885H351.82C351.806 37.272 351.697 37.024 351.494 36.8445C351.291 36.665 351.04 36.5752 350.743 36.5752ZM354.543 39.7569C354.123 39.7569 353.773 39.6506 353.495 39.438C353.216 39.2254 353.053 38.9373 353.006 38.5735H353.615C353.653 38.7578 353.75 38.9184 353.906 39.0554C354.066 39.1877 354.281 39.2538 354.551 39.2538C354.801 39.2538 354.985 39.2018 355.103 39.0979C355.221 38.9892 355.28 38.8617 355.28 38.7152C355.28 38.5027 355.202 38.3609 355.047 38.2901C354.895 38.2192 354.68 38.1554 354.402 38.0987C354.213 38.0609 354.024 38.0066 353.835 37.9358C353.646 37.8649 353.488 37.7657 353.36 37.6381C353.233 37.5059 353.169 37.3334 353.169 37.1208C353.169 36.8138 353.282 36.5634 353.509 36.3697C353.74 36.1713 354.052 36.0721 354.444 36.0721C354.817 36.0721 355.122 36.1666 355.358 36.3555C355.599 36.5398 355.739 36.8043 355.776 37.1492H355.188C355.165 36.9697 355.087 36.8303 354.954 36.7311C354.827 36.6272 354.654 36.5752 354.437 36.5752C354.225 36.5752 354.059 36.6201 353.941 36.7098C353.828 36.7996 353.771 36.9177 353.771 37.0642C353.771 37.2059 353.844 37.3169 353.991 37.3972C354.142 37.4775 354.345 37.546 354.6 37.6027C354.817 37.6499 355.023 37.709 355.217 37.7799C355.415 37.846 355.576 37.9476 355.699 38.0846C355.826 38.2168 355.89 38.4105 355.89 38.6656C355.895 38.9822 355.774 39.2443 355.528 39.4522C355.288 39.6553 354.959 39.7569 354.543 39.7569ZM360.004 39.6719C359.683 39.6719 359.43 39.5939 359.246 39.438C359.062 39.2821 358.97 39.001 358.97 38.5948V36.6602H358.36V36.1571H358.97L359.048 35.3139H359.565V36.1571H360.6V36.6602H359.565V38.5948C359.565 38.8168 359.61 38.968 359.7 39.0483C359.789 39.1239 359.948 39.1617 360.174 39.1617H360.543V39.6719H360.004ZM361.356 39.6719V36.1571H361.894L361.944 36.8303C362.053 36.5988 362.218 36.4146 362.44 36.2776C362.662 36.1406 362.936 36.0721 363.262 36.0721V36.6957H363.099C362.891 36.6957 362.7 36.7335 362.525 36.809C362.35 36.8799 362.211 37.0027 362.107 37.1775C362.003 37.3523 361.951 37.5933 361.951 37.9003V39.6719H361.356ZM365.379 39.7569C365.044 39.7569 364.746 39.6813 364.486 39.5302C364.226 39.3743 364.021 39.1593 363.87 38.8853C363.723 38.6113 363.65 38.2877 363.65 37.9145C363.65 37.546 363.723 37.2248 363.87 36.9508C364.016 36.672 364.219 36.4571 364.479 36.3059C364.744 36.15 365.048 36.0721 365.393 36.0721C365.733 36.0721 366.026 36.15 366.272 36.3059C366.522 36.4571 366.713 36.6579 366.846 36.9083C366.978 37.1586 367.044 37.4279 367.044 37.7161C367.044 37.768 367.042 37.82 367.037 37.872C367.037 37.9239 367.037 37.983 367.037 38.0491H364.238C364.252 38.3184 364.314 38.5428 364.422 38.7223C364.536 38.8971 364.675 39.0294 364.84 39.1192C365.01 39.2089 365.19 39.2538 365.379 39.2538C365.625 39.2538 365.83 39.1971 365.995 39.0837C366.161 38.9703 366.281 38.8168 366.357 38.6231H366.945C366.85 38.9491 366.669 39.2207 366.399 39.438C366.135 39.6506 365.795 39.7569 365.379 39.7569ZM365.379 36.5752C365.095 36.5752 364.843 36.6626 364.621 36.8374C364.403 37.0075 364.278 37.2578 364.245 37.5885H366.456C366.442 37.272 366.333 37.024 366.13 36.8445C365.927 36.665 365.677 36.5752 365.379 36.5752ZM367.833 39.6719V36.1571H368.372L368.407 36.7878C368.52 36.5658 368.683 36.391 368.896 36.2634C369.109 36.1359 369.35 36.0721 369.619 36.0721C370.035 36.0721 370.365 36.1996 370.611 36.4547C370.861 36.7051 370.986 37.0925 370.986 37.6169V39.6719H370.391V37.6807C370.391 36.9484 370.089 36.5823 369.484 36.5823C369.182 36.5823 368.929 36.6933 368.726 36.9153C368.528 37.1327 368.428 37.4444 368.428 37.8507V39.6719H367.833ZM373.483 39.7569C373.133 39.7569 372.826 39.6766 372.562 39.516C372.302 39.3554 372.099 39.1357 371.952 38.857C371.81 38.5782 371.74 38.2617 371.74 37.9074C371.74 37.5531 371.813 37.2389 371.959 36.9649C372.106 36.6862 372.309 36.4689 372.569 36.313C372.828 36.1524 373.136 36.0721 373.49 36.0721C373.778 36.0721 374.033 36.1311 374.255 36.2492C374.477 36.3673 374.65 36.5327 374.772 36.7453V34.5698H375.368V39.6719H374.829L374.772 39.0908C374.659 39.2609 374.496 39.4144 374.283 39.5514C374.071 39.6884 373.804 39.7569 373.483 39.7569ZM373.547 39.2396C373.783 39.2396 373.991 39.1853 374.17 39.0766C374.354 38.9633 374.496 38.8074 374.595 38.6089C374.699 38.4105 374.751 38.179 374.751 37.9145C374.751 37.6499 374.699 37.4185 374.595 37.22C374.496 37.0216 374.354 36.8681 374.17 36.7594C373.991 36.6461 373.783 36.5894 373.547 36.5894C373.315 36.5894 373.107 36.6461 372.923 36.7594C372.743 36.8681 372.602 37.0216 372.498 37.22C372.399 37.4185 372.349 37.6499 372.349 37.9145C372.349 38.179 372.399 38.4105 372.498 38.6089C372.602 38.8074 372.743 38.9633 372.923 39.0766C373.107 39.1853 373.315 39.2396 373.547 39.2396Z" fill="#354263"/>
</g>
<g filter="url(#filter2_d_1806_15601)">
<g filter="url(#filter3_d_1806_15601)">
<rect x="158" y="16" width="160.274" height="71" rx="9.15849" fill="url(#paint0_linear_1806_15601)"/>
</g>
<rect x="170.593" y="29.1553" width="63.8599" height="8.606" rx="4.303" fill="#C2DCE9"/>
<rect x="169.448" y="50.4238" width="133.943" height="6.45459" rx="3.22729" fill="#EAF4F9"/>
<rect x="170.593" y="69.542" width="133.943" height="6.45452" rx="3.22726" fill="#EAF4F9"/>
</g>
</g>
<defs>
<filter id="filter0_d_1806_15601" x="-37.678" y="59.7481" width="652.038" height="434.343" filterUnits="userSpaceOnUse" color-interpolation-filters="sRGB">
<feFlood flood-opacity="0" result="BackgroundImageFix"/>
<feColorMatrix in="SourceAlpha" type="matrix" values="0 0 0 0 0 0 0 0 0 0 0 0 0 0 0 0 0 0 127 0" result="hardAlpha"/>
<feMorphology radius="12.5593" operator="erode" in="SourceAlpha" result="effect1_dropShadow_1806_15601"/>
<feOffset dx="33.4915" dy="16.7458"/>
<feGaussianBlur stdDeviation="41.8644"/>
<feComposite in2="hardAlpha" operator="out"/>
<feColorMatrix type="matrix" values="0 0 0 0 0.14902 0 0 0 0 0.14902 0 0 0 0 0.14902 0 0 0 0.08 0"/>
<feBlend mode="normal" in2="BackgroundImageFix" result="effect1_dropShadow_1806_15601"/>
<feBlend mode="normal" in="SourceGraphic" in2="effect1_dropShadow_1806_15601" result="shape"/>
</filter>
<filter id="filter1_d_1806_15601" x="257" y="-32" width="273" height="280" filterUnits="userSpaceOnUse" color-interpolation-filters="sRGB">
<feFlood flood-opacity="0" result="BackgroundImageFix"/>
<feColorMatrix in="SourceAlpha" type="matrix" values="0 0 0 0 0 0 0 0 0 0 0 0 0 0 0 0 0 0 127 0" result="hardAlpha"/>
<feMorphology radius="12" operator="erode" in="SourceAlpha" result="effect1_dropShadow_1806_15601"/>
<feOffset dy="16"/>
<feGaussianBlur stdDeviation="40"/>
<feComposite in2="hardAlpha" operator="out"/>
<feColorMatrix type="matrix" values="0 0 0 0 0 0 0 0 0 0.592157 0 0 0 0 0.996078 0 0 0 0.05 0"/>
<feBlend mode="normal" in2="BackgroundImageFix" result="effect1_dropShadow_1806_15601"/>
<feBlend mode="normal" in="SourceGraphic" in2="effect1_dropShadow_1806_15601" result="shape"/>
</filter>
<filter id="filter2_d_1806_15601" x="90" y="-36" width="296.274" height="207" filterUnits="userSpaceOnUse" color-interpolation-filters="sRGB">
<feFlood flood-opacity="0" result="BackgroundImageFix"/>
<feColorMatrix in="SourceAlpha" type="matrix" values="0 0 0 0 0 0 0 0 0 0 0 0 0 0 0 0 0 0 127 0" result="hardAlpha"/>
<feMorphology radius="12" operator="erode" in="SourceAlpha" result="effect1_dropShadow_1806_15601"/>
<feOffset dy="16"/>
<feGaussianBlur stdDeviation="40"/>
<feComposite in2="hardAlpha" operator="out"/>
<feColorMatrix type="matrix" values="0 0 0 0 0 0 0 0 0 0.592157 0 0 0 0 0.996078 0 0 0 0.05 0"/>
<feBlend mode="normal" in2="BackgroundImageFix" result="effect1_dropShadow_1806_15601"/>
<feBlend mode="normal" in="SourceGraphic" in2="effect1_dropShadow_1806_15601" result="shape"/>
</filter>
<filter id="filter3_d_1806_15601" x="139.135" y="2.79459" width="198.003" height="108.73" filterUnits="userSpaceOnUse" color-interpolation-filters="sRGB">
<feFlood flood-opacity="0" result="BackgroundImageFix"/>
<feColorMatrix in="SourceAlpha" type="matrix" values="0 0 0 0 0 0 0 0 0 0 0 0 0 0 0 0 0 0 127 0" result="hardAlpha"/>
<feOffset dy="5.65946"/>
<feGaussianBlur stdDeviation="9.43244"/>
<feColorMatrix type="matrix" values="0 0 0 0 0.11 0 0 0 0 0.14137 0 0 0 0 0.4125 0 0 0 0.05 0"/>
<feBlend mode="normal" in2="BackgroundImageFix" result="effect1_dropShadow_1806_15601"/>
<feBlend mode="normal" in="SourceGraphic" in2="effect1_dropShadow_1806_15601" result="shape"/>
</filter>
<linearGradient id="paint0_linear_1806_15601" x1="158" y1="16" x2="210.585" y2="134.705" gradientUnits="userSpaceOnUse">
<stop stop-color="#AC60E5"/>
<stop offset="1" stop-color="#0C87F0"/>
</linearGradient>
<clipPath id="clip0_1806_15601">
<rect width="509" height="406" fill="white"/>
</clipPath>
</defs>
</svg>
