<svg width="126" height="22" viewBox="0 0 126 22" fill="none" xmlns="http://www.w3.org/2000/svg">
<path d="M17.2281 15.9042C16.6681 17.7148 15.6881 19.0682 14.2881 19.9642C12.8881 20.8415 11.2548 21.2802 9.38813 21.2802C7.5588 21.2802 5.97213 20.8975 4.62813 20.1322C3.3028 19.3668 2.27613 18.2748 1.54813 16.8562C0.838797 15.4375 0.484131 13.7388 0.484131 11.7602C0.484131 9.7815 0.848131 8.08283 1.57613 6.66416C2.30413 5.2455 3.3308 4.1535 4.65613 3.38816C5.98146 2.62283 7.54013 2.24016 9.33213 2.24016C11.2175 2.24016 12.8321 2.6415 14.1761 3.44416C15.5388 4.22816 16.4721 5.42283 16.9761 7.02816L13.4761 8.51217C13.1588 7.39216 12.6735 6.59883 12.0201 6.13216C11.3668 5.64683 10.5268 5.40416 9.50013 5.40416C7.96946 5.40416 6.7468 5.95483 5.83213 7.05616C4.93613 8.13883 4.48813 9.70683 4.48813 11.7602C4.48813 13.7948 4.91746 15.3628 5.77613 16.4642C6.6348 17.5655 7.87613 18.1162 9.50013 18.1162C10.5081 18.1162 11.3761 17.8455 12.1041 17.3042C12.8508 16.7628 13.3735 15.9415 13.6721 14.8402L17.2281 15.9042Z" fill="#B8BDC9"/>
<path d="M22.0614 4.98416C20.4747 4.98416 19.6814 4.30283 19.6814 2.94016C19.6814 1.55883 20.4747 0.868164 22.0614 0.868164C23.6481 0.868164 24.4414 1.55883 24.4414 2.94016C24.4414 4.30283 23.6481 4.98416 22.0614 4.98416ZM23.9654 7.00016V21.0002H20.1294V7.00016H23.9654Z" fill="#B8BDC9"/>
<path d="M28.0318 21.0002V7.00016H31.3637L31.6157 9.74416C31.9704 8.79216 32.5024 8.05483 33.2117 7.53216C33.9397 6.99083 34.8544 6.72016 35.9557 6.72016C36.6091 6.72016 37.1131 6.82283 37.4677 7.02816L37.0197 10.2482C36.8331 10.1922 36.5997 10.1455 36.3197 10.1082C36.0584 10.0522 35.7131 10.0242 35.2837 10.0242C34.7051 10.0242 34.1544 10.1642 33.6317 10.4442C33.1277 10.7055 32.7077 11.1162 32.3717 11.6762C32.0357 12.2175 31.8678 12.9082 31.8678 13.7482V21.0002H28.0318Z" fill="#B8BDC9"/>
<path d="M45.9268 6.72016C47.7935 6.72016 49.2401 7.1215 50.2668 7.92416C51.3121 8.72683 52.0028 9.6975 52.3388 10.8362L48.7548 12.1242C48.3815 10.4255 47.4575 9.57616 45.9828 9.57616C44.9188 9.57616 44.0881 9.9495 43.4908 10.6962C42.9121 11.4428 42.6228 12.5535 42.6228 14.0282C42.6228 15.5215 42.9215 16.6322 43.5188 17.3602C44.1348 18.0695 44.9655 18.4242 46.0108 18.4242C47.6348 18.4242 48.6055 17.5935 48.9228 15.9322L52.3948 17.0522C52.0775 18.3028 51.3681 19.3202 50.2668 20.1042C49.1841 20.8882 47.7748 21.2802 46.0388 21.2802C44.5828 21.2802 43.3041 20.9908 42.2028 20.4122C41.1201 19.8335 40.2801 19.0028 39.6828 17.9202C39.0855 16.8375 38.7868 15.5308 38.7868 14.0002C38.7868 12.4695 39.0855 11.1628 39.6828 10.0802C40.2988 8.9975 41.1388 8.16683 42.2028 7.58816C43.2855 7.0095 44.5268 6.72016 45.9268 6.72016Z" fill="#B8BDC9"/>
<path d="M61.7595 6.72016C63.1595 6.72016 64.4008 7.0095 65.4835 7.58816C66.5662 8.16683 67.4062 8.9975 68.0035 10.0802C68.6195 11.1628 68.9275 12.4695 68.9275 14.0002C68.9275 15.5308 68.6195 16.8375 68.0035 17.9202C67.4062 19.0028 66.5662 19.8335 65.4835 20.4122C64.4008 20.9908 63.1595 21.2802 61.7595 21.2802C60.3408 21.2802 59.0902 20.9908 58.0075 20.4122C56.9435 19.8335 56.1035 19.0028 55.4875 17.9202C54.8902 16.8375 54.5915 15.5308 54.5915 14.0002C54.5915 12.4695 54.8902 11.1628 55.4875 10.0802C56.1035 8.9975 56.9435 8.16683 58.0075 7.58816C59.0902 7.0095 60.3408 6.72016 61.7595 6.72016ZM61.7595 9.57616C60.7142 9.57616 59.8928 9.9495 59.2955 10.6962C58.7168 11.4242 58.4275 12.5255 58.4275 14.0002C58.4275 15.4748 58.7168 16.5855 59.2955 17.3322C59.8928 18.0602 60.7142 18.4242 61.7595 18.4242C62.7862 18.4242 63.5888 18.0602 64.1675 17.3322C64.7648 16.5855 65.0635 15.4748 65.0635 14.0002C65.0635 12.5255 64.7648 11.4242 64.1675 10.6962C63.5888 9.9495 62.7862 9.57616 61.7595 9.57616Z" fill="#B8BDC9"/>
<path d="M78.5212 6.72016C79.9212 6.72016 81.1625 7.0095 82.2452 7.58816C83.3279 8.16683 84.1679 8.9975 84.7652 10.0802C85.3812 11.1628 85.6892 12.4695 85.6892 14.0002C85.6892 15.5308 85.3812 16.8375 84.7652 17.9202C84.1679 19.0028 83.3279 19.8335 82.2452 20.4122C81.1625 20.9908 79.9212 21.2802 78.5212 21.2802C77.1025 21.2802 75.8519 20.9908 74.7692 20.4122C73.7052 19.8335 72.8652 19.0028 72.2492 17.9202C71.6519 16.8375 71.3532 15.5308 71.3532 14.0002C71.3532 12.4695 71.6519 11.1628 72.2492 10.0802C72.8652 8.9975 73.7052 8.16683 74.7692 7.58816C75.8519 7.0095 77.1025 6.72016 78.5212 6.72016ZM78.5212 9.57616C77.4759 9.57616 76.6545 9.9495 76.0572 10.6962C75.4785 11.4242 75.1892 12.5255 75.1892 14.0002C75.1892 15.4748 75.4785 16.5855 76.0572 17.3322C76.6545 18.0602 77.4759 18.4242 78.5212 18.4242C79.5479 18.4242 80.3505 18.0602 80.9292 17.3322C81.5265 16.5855 81.8252 15.4748 81.8252 14.0002C81.8252 12.5255 81.5265 11.4242 80.9292 10.6962C80.3505 9.9495 79.5479 9.57616 78.5212 9.57616Z" fill="#B8BDC9"/>
<path d="M92.6789 0.868164V16.6882C92.6789 17.3415 92.7909 17.7988 93.0149 18.0602C93.2389 18.3215 93.6123 18.4522 94.1349 18.4522C94.4523 18.4522 94.7136 18.4335 94.9189 18.3962C95.1243 18.3588 95.3856 18.2842 95.7029 18.1722L95.3669 20.6922C95.0496 20.8788 94.6483 21.0188 94.1629 21.1122C93.6963 21.2242 93.2296 21.2802 92.7629 21.2802C91.4003 21.2802 90.4016 20.9535 89.7669 20.3002C89.1509 19.6282 88.8429 18.5642 88.8429 17.1082V0.868164H92.6789Z" fill="#B8BDC9"/>
<path d="M104.336 21.2802C102.134 21.2802 100.37 20.6455 99.0443 19.3762C97.719 18.0882 97.0563 16.2962 97.0563 14.0002C97.0563 12.4695 97.355 11.1628 97.9523 10.0802C98.5497 8.9975 99.3803 8.16683 100.444 7.58816C101.527 7.0095 102.759 6.72016 104.14 6.72016C105.559 6.72016 106.763 7.0095 107.752 7.58816C108.742 8.14816 109.498 8.92283 110.02 9.91216C110.543 10.8828 110.804 11.9935 110.804 13.2442C110.804 13.6175 110.795 13.9722 110.776 14.3082C110.758 14.6442 110.73 14.9428 110.692 15.2042H100.808C100.958 16.2868 101.331 17.0988 101.928 17.6402C102.544 18.1628 103.338 18.4242 104.308 18.4242C105.13 18.4242 105.792 18.2655 106.296 17.9482C106.8 17.6308 107.192 17.1922 107.472 16.6322L110.524 17.8082C110.076 18.9095 109.292 19.7682 108.172 20.3842C107.052 20.9815 105.774 21.2802 104.336 21.2802ZM104.112 9.54816C102.302 9.54816 101.21 10.5468 100.836 12.5442H107.136C107.024 11.5735 106.707 10.8362 106.184 10.3322C105.68 9.8095 104.99 9.54816 104.112 9.54816Z" fill="#B8BDC9"/>
<path d="M119.655 21.2802C118.236 21.2802 116.939 21.0282 115.763 20.5242C114.606 20.0202 113.663 19.3108 112.935 18.3962L115.147 16.1562C115.595 16.8282 116.192 17.3788 116.939 17.8082C117.686 18.2375 118.572 18.4522 119.599 18.4522C120.327 18.4522 120.906 18.3495 121.335 18.1442C121.783 17.9202 122.007 17.5748 122.007 17.1082C122.007 16.8095 121.904 16.5575 121.699 16.3522C121.494 16.1282 121.083 15.9508 120.467 15.8202L118.003 15.3162C116.379 14.9802 115.222 14.4762 114.531 13.8042C113.859 13.1135 113.523 12.2268 113.523 11.1442C113.523 10.3788 113.747 9.66016 114.195 8.98816C114.662 8.31616 115.352 7.77483 116.267 7.36416C117.182 6.93483 118.32 6.72016 119.683 6.72016C122.52 6.72016 124.555 7.58816 125.787 9.32416L123.491 11.5642C123.081 10.9108 122.539 10.4162 121.867 10.0802C121.214 9.7255 120.523 9.54816 119.795 9.54816C118.152 9.54816 117.331 10.0055 117.331 10.9202C117.331 11.2188 117.462 11.4802 117.723 11.7042C117.984 11.9095 118.46 12.0868 119.151 12.2362L122.007 12.8242C123.388 13.1042 124.378 13.5802 124.975 14.2522C125.572 14.9055 125.871 15.6988 125.871 16.6322C125.871 17.9762 125.33 19.0868 124.247 19.9642C123.183 20.8415 121.652 21.2802 119.655 21.2802Z" fill="#B8BDC9"/>
</svg>
