<svg width="167" height="22" viewBox="0 0 167 22" fill="none" xmlns="http://www.w3.org/2000/svg">
<path d="M10.34 21.2805C8.28663 21.2805 6.52263 20.8698 5.04796 20.0485C3.59196 19.2085 2.47196 18.0325 1.68796 16.5205C0.903963 14.9898 0.511963 13.1885 0.511963 11.1165C0.511963 9.04447 0.903963 7.25247 1.68796 5.74047C2.47196 4.22847 3.59196 3.0618 5.04796 2.24047C6.52263 1.40047 8.28663 0.980469 10.34 0.980469C11.6653 0.980469 12.916 1.1858 14.092 1.59647C15.2866 2.00714 16.2666 2.59514 17.032 3.36047L15.856 6.21647C15.016 5.50713 14.1573 4.9938 13.28 4.67647C12.4026 4.34047 11.46 4.17247 10.452 4.17247C8.45463 4.17247 6.9333 4.77914 5.88796 5.99247C4.84263 7.18713 4.31996 8.89513 4.31996 11.1165C4.31996 13.3378 4.84263 15.0551 5.88796 16.2685C6.9333 17.4818 8.45463 18.0885 10.452 18.0885C11.46 18.0885 12.4026 17.9298 13.28 17.6125C14.1573 17.2765 15.016 16.7538 15.856 16.0445L17.032 18.9005C16.2666 19.6471 15.2866 20.2351 14.092 20.6645C12.916 21.0751 11.6653 21.2805 10.34 21.2805Z" fill="#B8BDC9"/>
<path d="M25.0835 21.2805C23.6648 21.2805 22.4328 20.9911 21.3875 20.4125C20.3422 19.8338 19.5302 19.0125 18.9515 17.9485C18.3728 16.8658 18.0835 15.5965 18.0835 14.1405C18.0835 12.6845 18.3728 11.4245 18.9515 10.3605C19.5302 9.29647 20.3422 8.47513 21.3875 7.89647C22.4328 7.3178 23.6648 7.02847 25.0835 7.02847C26.5022 7.02847 27.7342 7.3178 28.7795 7.89647C29.8248 8.47513 30.6368 9.29647 31.2155 10.3605C31.7942 11.4245 32.0835 12.6845 32.0835 14.1405C32.0835 15.5965 31.7942 16.8658 31.2155 17.9485C30.6368 19.0125 29.8248 19.8338 28.7795 20.4125C27.7342 20.9911 26.5022 21.2805 25.0835 21.2805ZM25.0835 18.6205C26.1288 18.6205 26.9688 18.2471 27.6035 17.5005C28.2382 16.7351 28.5555 15.6151 28.5555 14.1405C28.5555 12.6471 28.2382 11.5365 27.6035 10.8085C26.9688 10.0618 26.1288 9.68847 25.0835 9.68847C24.0382 9.68847 23.1982 10.0618 22.5635 10.8085C21.9288 11.5365 21.6115 12.6471 21.6115 14.1405C21.6115 15.6151 21.9288 16.7351 22.5635 17.5005C23.1982 18.2471 24.0382 18.6205 25.0835 18.6205Z" fill="#B8BDC9"/>
<path d="M35.0283 21.0005V7.30847H38.4443V9.40847C38.855 8.6618 39.4243 8.08314 40.1523 7.67247C40.8803 7.24314 41.7203 7.02847 42.6723 7.02847C44.7256 7.02847 46.0696 7.92447 46.7043 9.71647C47.1336 8.87647 47.7496 8.22314 48.5523 7.75647C49.355 7.27114 50.2696 7.02847 51.2963 7.02847C54.3763 7.02847 55.9163 8.90447 55.9163 12.6565V21.0005H52.4163V12.7965C52.4163 11.7511 52.239 10.9858 51.8843 10.5005C51.5483 10.0151 50.9696 9.77247 50.1483 9.77247C49.2336 9.77247 48.515 10.0991 47.9923 10.7525C47.4696 11.3871 47.2083 12.2738 47.2083 13.4125V21.0005H43.7083V12.7965C43.7083 11.7511 43.531 10.9858 43.1763 10.5005C42.8403 10.0151 42.271 9.77247 41.4683 9.77247C40.5536 9.77247 39.835 10.0991 39.3123 10.7525C38.7896 11.3871 38.5283 12.2738 38.5283 13.4125V21.0005H35.0283Z" fill="#B8BDC9"/>
<path d="M59.583 21.0005V7.30847H62.999V9.40847C63.4097 8.6618 63.979 8.08314 64.707 7.67247C65.435 7.24314 66.275 7.02847 67.227 7.02847C69.2803 7.02847 70.6243 7.92447 71.259 9.71647C71.6883 8.87647 72.3043 8.22314 73.107 7.75647C73.9097 7.27114 74.8243 7.02847 75.851 7.02847C78.931 7.02847 80.471 8.90447 80.471 12.6565V21.0005H76.971V12.7965C76.971 11.7511 76.7937 10.9858 76.439 10.5005C76.103 10.0151 75.5243 9.77247 74.703 9.77247C73.7883 9.77247 73.0697 10.0991 72.547 10.7525C72.0243 11.3871 71.763 12.2738 71.763 13.4125V21.0005H68.263V12.7965C68.263 11.7511 68.0857 10.9858 67.731 10.5005C67.395 10.0151 66.8257 9.77247 66.023 9.77247C65.1083 9.77247 64.3897 10.0991 63.867 10.7525C63.3443 11.3871 63.083 12.2738 63.083 13.4125V21.0005H59.583Z" fill="#B8BDC9"/>
<path d="M88.5897 21.2805C87.6003 21.2805 86.7137 21.0938 85.9297 20.7205C85.1643 20.3285 84.5577 19.8058 84.1097 19.1525C83.6803 18.4991 83.4657 17.7618 83.4657 16.9405C83.4657 15.9325 83.727 15.1391 84.2497 14.5605C84.7723 13.9631 85.6217 13.5338 86.7977 13.2725C87.9737 13.0111 89.551 12.8805 91.5297 12.8805H92.5097V12.2925C92.5097 11.3591 92.3043 10.6871 91.8937 10.2765C91.483 9.8658 90.7923 9.66047 89.8217 9.66047C89.0563 9.66047 88.2723 9.7818 87.4697 10.0245C86.667 10.2485 85.855 10.6031 85.0337 11.0885L84.0257 8.70847C84.511 8.37247 85.0803 8.08313 85.7337 7.84047C86.4057 7.57913 87.1057 7.38313 87.8337 7.25247C88.5803 7.10313 89.2803 7.02847 89.9337 7.02847C91.931 7.02847 93.415 7.49514 94.3857 8.42847C95.3563 9.34314 95.8417 10.7711 95.8417 12.7125V21.0005H92.5657V18.8165C92.2483 19.5818 91.7443 20.1885 91.0537 20.6365C90.363 21.0658 89.5417 21.2805 88.5897 21.2805ZM89.3177 18.8725C90.2323 18.8725 90.9883 18.5551 91.5857 17.9205C92.2017 17.2858 92.5097 16.4831 92.5097 15.5125V14.8965H91.5577C89.803 14.8965 88.5803 15.0365 87.8897 15.3165C87.2177 15.5778 86.8817 16.0631 86.8817 16.7725C86.8817 17.3885 87.0963 17.8925 87.5257 18.2845C87.955 18.6765 88.5523 18.8725 89.3177 18.8725Z" fill="#B8BDC9"/>
<path d="M99.3942 21.0005V7.30847H102.81V9.43647C103.277 8.65247 103.902 8.05513 104.686 7.64447C105.489 7.2338 106.385 7.02847 107.374 7.02847C110.604 7.02847 112.218 8.90447 112.218 12.6565V21.0005H108.718V12.8245C108.718 11.7605 108.513 10.9858 108.102 10.5005C107.71 10.0151 107.094 9.77247 106.254 9.77247C105.228 9.77247 104.406 10.0991 103.79 10.7525C103.193 11.3871 102.894 12.2365 102.894 13.3005V21.0005H99.3942Z" fill="#B8BDC9"/>
<path d="M121.037 21.2805C119.842 21.2805 118.788 20.9911 117.873 20.4125C116.977 19.8338 116.277 19.0125 115.773 17.9485C115.269 16.8658 115.017 15.5965 115.017 14.1405C115.017 12.6658 115.269 11.4058 115.773 10.3605C116.277 9.29647 116.977 8.47513 117.873 7.89647C118.788 7.3178 119.842 7.02847 121.037 7.02847C122.008 7.02847 122.885 7.24314 123.669 7.67247C124.453 8.1018 125.041 8.67113 125.433 9.38047V1.26047H128.933V21.0005H125.517V18.7325C125.144 19.5165 124.556 20.1418 123.753 20.6085C122.95 21.0565 122.045 21.2805 121.037 21.2805ZM122.017 18.6205C123.062 18.6205 123.902 18.2471 124.537 17.5005C125.172 16.7351 125.489 15.6151 125.489 14.1405C125.489 12.6471 125.172 11.5365 124.537 10.8085C123.902 10.0618 123.062 9.68847 122.017 9.68847C120.972 9.68847 120.132 10.0618 119.497 10.8085C118.862 11.5365 118.545 12.6471 118.545 14.1405C118.545 15.6151 118.862 16.7351 119.497 17.5005C120.132 18.2471 120.972 18.6205 122.017 18.6205Z" fill="#B8BDC9"/>
<path d="M137.854 19.8805V14.1965H132.31V11.7325H137.854V6.21647H140.43V11.7325H145.974V14.1965H140.43V19.8805H137.854Z" fill="#B8BDC9"/>
<path d="M149.687 21.0005V1.26047H158.255C160.421 1.26047 162.091 1.78313 163.267 2.82847C164.443 3.85513 165.031 5.3018 165.031 7.16847C165.031 8.64313 164.649 9.8658 163.883 10.8365C163.118 11.7885 162.017 12.4325 160.579 12.7685C161.531 13.0671 162.315 13.7858 162.931 14.9245L166.235 21.0005H162.287L158.871 14.7005C158.535 14.0845 158.134 13.6645 157.667 13.4405C157.219 13.2165 156.641 13.1045 155.931 13.1045H153.271V21.0005H149.687ZM153.271 10.4445H157.639C160.253 10.4445 161.559 9.38047 161.559 7.25247C161.559 5.14313 160.253 4.08847 157.639 4.08847H153.271V10.4445Z" fill="#B8BDC9"/>
</svg>
