<svg width="48" height="48" viewBox="0 0 48 48" fill="none" xmlns="http://www.w3.org/2000/svg">
<rect width="48" height="48" rx="10" fill="white" fill-opacity="0.2"/>
<path fill-rule="evenodd" clip-rule="evenodd" d="M18.7692 34.6672C28.4306 34.6672 34.0199 27.1659 34.0199 20.0472C34.0199 19.8512 35.3932 18.6725 35.9812 16.2152C36.1012 15.7165 35.6159 15.3232 35.1586 15.5325C33.9852 16.0712 32.7946 15.6445 32.2772 15.0312C30.2879 12.8619 26.9612 12.7579 24.8452 14.7979C23.4812 16.1139 22.9026 18.0739 23.3252 19.9445C18.8572 20.2632 15.7892 18.1459 13.2666 15.2432C12.9412 14.8659 12.3372 15.0645 12.2692 15.5632C11.8959 18.3392 11.7786 25.0885 18.4666 28.9645C17.3052 30.6339 15.0319 31.6192 12.5012 32.0419C11.9412 32.1365 11.8079 32.9125 12.3199 33.1632C14.3252 34.1499 16.5292 34.6659 18.7692 34.6632" fill="#03133D"/>
<mask id="mask0_1832_7227" style="mask-type:alpha" maskUnits="userSpaceOnUse" x="12" y="13" width="24" height="22">
<path fill-rule="evenodd" clip-rule="evenodd" d="M18.7692 34.6672C28.4306 34.6672 34.0199 27.1659 34.0199 20.0472C34.0199 19.8512 35.3932 18.6725 35.9812 16.2152C36.1012 15.7165 35.6159 15.3232 35.1586 15.5325C33.9852 16.0712 32.7946 15.6445 32.2772 15.0312C30.2879 12.8619 26.9612 12.7579 24.8452 14.7979C23.4812 16.1139 22.9026 18.0739 23.3252 19.9445C18.8572 20.2632 15.7892 18.1459 13.2666 15.2432C12.9412 14.8659 12.3372 15.0645 12.2692 15.5632C11.8959 18.3392 11.7786 25.0885 18.4666 28.9645C17.3052 30.6339 15.0319 31.6192 12.5012 32.0419C11.9412 32.1365 11.8079 32.9125 12.3199 33.1632C14.3252 34.1499 16.5292 34.6659 18.7692 34.6632" fill="white"/>
</mask>
<g mask="url(#mask0_1832_7227)">
<rect x="8" y="8" width="32" height="32" fill="white"/>
</g>
</svg>
