<svg width="48" height="48" viewBox="0 0 48 48" fill="none" xmlns="http://www.w3.org/2000/svg">
<rect width="48" height="48" rx="10" fill="white" fill-opacity="0.2"/>
<path fill-rule="evenodd" clip-rule="evenodd" d="M11.9998 15C11.9998 13.344 13.3438 12 14.9998 12C16.6558 12 17.9998 13.344 17.9998 15C17.9998 16.656 16.6558 18 14.9998 18C13.3438 18 11.9998 16.656 11.9998 15ZM28.2005 19.2005C23.8925 19.2005 20.3991 22.6725 20.3991 26.9525V34.7992C20.3991 35.4619 20.9378 36.0005 21.6005 36.0005H24.3991C25.0618 36.0005 25.6005 35.4619 25.6005 34.7992V26.9525C25.6005 25.4379 26.9125 24.2272 28.4698 24.3832C29.8218 24.5179 30.7991 25.7539 30.7991 27.1125V34.7992C30.7991 35.4619 31.3378 36.0005 32.0005 36.0005H34.7991C35.4618 36.0005 36.0005 35.4619 36.0005 34.7992V26.9525C36.0005 22.6725 32.5071 19.2005 28.2005 19.2005ZM16.7994 20.3997H13.2007C12.5381 20.3997 11.9994 20.9371 11.9994 21.5997V34.7997C11.9994 35.4624 12.5381 35.9997 13.2007 35.9997H16.7994C17.4621 35.9997 17.9994 35.4624 17.9994 34.7997V21.5997C17.9994 20.9371 17.4621 20.3997 16.7994 20.3997Z" fill="#03133D"/>
<mask id="mask0_1832_7239" style="mask-type:alpha" maskUnits="userSpaceOnUse" x="11" y="12" width="26" height="25">
<path fill-rule="evenodd" clip-rule="evenodd" d="M11.9998 15C11.9998 13.344 13.3438 12 14.9998 12C16.6558 12 17.9998 13.344 17.9998 15C17.9998 16.656 16.6558 18 14.9998 18C13.3438 18 11.9998 16.656 11.9998 15ZM28.2005 19.2005C23.8925 19.2005 20.3991 22.6725 20.3991 26.9525V34.7992C20.3991 35.4619 20.9378 36.0005 21.6005 36.0005H24.3991C25.0618 36.0005 25.6005 35.4619 25.6005 34.7992V26.9525C25.6005 25.4379 26.9125 24.2272 28.4698 24.3832C29.8218 24.5179 30.7991 25.7539 30.7991 27.1125V34.7992C30.7991 35.4619 31.3378 36.0005 32.0005 36.0005H34.7991C35.4618 36.0005 36.0005 35.4619 36.0005 34.7992V26.9525C36.0005 22.6725 32.5071 19.2005 28.2005 19.2005ZM16.7994 20.3997H13.2007C12.5381 20.3997 11.9994 20.9371 11.9994 21.5997V34.7997C11.9994 35.4624 12.5381 35.9997 13.2007 35.9997H16.7994C17.4621 35.9997 17.9994 35.4624 17.9994 34.7997V21.5997C17.9994 20.9371 17.4621 20.3997 16.7994 20.3997Z" fill="white"/>
</mask>
<g mask="url(#mask0_1832_7239)">
<rect x="8" y="8" width="32" height="32" fill="white"/>
</g>
</svg>
