<svg width="48" height="48" viewBox="0 0 48 48" fill="none" xmlns="http://www.w3.org/2000/svg">
<rect width="48" height="48" rx="10" fill="white" fill-opacity="0.2"/>
<path fill-rule="evenodd" clip-rule="evenodd" d="M27.4892 34.0692C28.8879 32.0718 30.3426 29.1345 30.6332 25.3332H34.5732C34.0626 29.4025 31.2546 32.7598 27.4892 34.0692ZM13.4254 25.3332H17.4147C17.6894 29.1492 19.1254 32.0745 20.5427 34.0812C16.7601 32.7785 13.9387 29.4145 13.4254 25.3332ZM20.5841 13.9051C19.1814 15.9024 17.7134 18.8491 17.4201 22.6664H13.4254C13.9401 18.5704 16.7814 15.1958 20.5841 13.9051ZM20.1054 22.6665C20.5134 18.3038 22.7454 15.2665 24.0348 13.8625C25.3681 15.2905 27.5654 18.2998 27.9454 22.6665H20.1054ZM20.1067 25.3332H27.9494C27.5414 29.7025 25.3041 32.7398 24.0161 34.1438C22.6201 32.6638 20.4787 29.6958 20.1067 25.3332ZM34.5732 22.6666H30.6372C30.3638 18.8679 28.9438 15.9519 27.5332 13.9479C31.2772 15.2679 34.0652 18.6132 34.5732 22.6666ZM37.3333 23.9998C37.3333 16.6612 31.372 10.6905 24.0373 10.6692C24.032 10.6692 24.0266 10.6678 24.02 10.6678C24.0146 10.6678 24.0066 10.6665 24 10.6665C16.648 10.6665 10.6666 16.6492 10.6666 23.9998C10.6666 31.3518 16.648 37.3332 24 37.3332C24.008 37.3332 24.0146 37.3318 24.02 37.3318C24.0226 37.3318 24.024 37.3332 24.0266 37.3332C24.0306 37.3332 24.0346 37.3305 24.0373 37.3305C31.372 37.3105 37.3333 31.3385 37.3333 23.9998Z" fill="#03133D"/>
<mask id="mask0_1832_7201" style="mask-type:alpha" maskUnits="userSpaceOnUse" x="10" y="10" width="28" height="28">
<path fill-rule="evenodd" clip-rule="evenodd" d="M27.4892 34.0692C28.8879 32.0718 30.3426 29.1345 30.6332 25.3332H34.5732C34.0626 29.4025 31.2546 32.7598 27.4892 34.0692ZM13.4254 25.3332H17.4147C17.6894 29.1492 19.1254 32.0745 20.5427 34.0812C16.7601 32.7785 13.9387 29.4145 13.4254 25.3332ZM20.5841 13.9051C19.1814 15.9024 17.7134 18.8491 17.4201 22.6664H13.4254C13.9401 18.5704 16.7814 15.1958 20.5841 13.9051ZM20.1054 22.6665C20.5134 18.3038 22.7454 15.2665 24.0348 13.8625C25.3681 15.2905 27.5654 18.2998 27.9454 22.6665H20.1054ZM20.1067 25.3332H27.9494C27.5414 29.7025 25.3041 32.7398 24.0161 34.1438C22.6201 32.6638 20.4787 29.6958 20.1067 25.3332ZM34.5732 22.6666H30.6372C30.3638 18.8679 28.9438 15.9519 27.5332 13.9479C31.2772 15.2679 34.0652 18.6132 34.5732 22.6666ZM37.3333 23.9998C37.3333 16.6612 31.372 10.6905 24.0373 10.6692C24.032 10.6692 24.0266 10.6678 24.02 10.6678C24.0146 10.6678 24.0066 10.6665 24 10.6665C16.648 10.6665 10.6666 16.6492 10.6666 23.9998C10.6666 31.3518 16.648 37.3332 24 37.3332C24.008 37.3332 24.0146 37.3318 24.02 37.3318C24.0226 37.3318 24.024 37.3332 24.0266 37.3332C24.0306 37.3332 24.0346 37.3305 24.0373 37.3305C31.372 37.3105 37.3333 31.3385 37.3333 23.9998Z" fill="white"/>
</mask>
<g mask="url(#mask0_1832_7201)">
<rect x="8" y="8" width="32" height="32" fill="white"/>
</g>
</svg>
