<svg width="48" height="48" viewBox="0 0 48 48" fill="none" xmlns="http://www.w3.org/2000/svg">
<rect width="48" height="48" rx="10" fill="white" fill-opacity="0.2"/>
<path fill-rule="evenodd" clip-rule="evenodd" d="M31.3268 26.6408C30.4388 29.4968 28.2255 31.4741 25.2802 31.9101C20.7855 32.5755 16.3722 29.1675 16.0228 24.6341C15.6602 19.9301 19.3708 16.0008 24.0015 16.0008C25.0722 16.0008 26.0935 16.2115 27.0268 16.5928C27.3508 16.7248 27.7175 16.6115 27.8828 16.3048L29.7962 12.7755C29.9775 12.4381 29.8468 12.0035 29.4975 11.8461C27.8215 11.0888 25.9628 10.6675 24.0055 10.6675C16.5095 10.6675 10.4575 16.8488 10.6722 24.3915C10.8682 31.2728 16.5482 37.0301 23.4242 37.3221C30.8188 37.6341 36.9522 31.9275 37.3242 24.6968C37.3388 24.4328 37.3335 22.8955 37.3282 21.9941C37.3268 21.6261 37.0282 21.3341 36.6615 21.3341H24.6628C24.2948 21.3341 23.9962 21.6315 23.9962 22.0008V25.9741C23.9962 26.3408 24.2948 26.6408 24.6628 26.6408H31.3268Z" fill="#03133D"/>
<mask id="mask0_1832_7233" style="mask-type:alpha" maskUnits="userSpaceOnUse" x="10" y="10" width="28" height="28">
<path fill-rule="evenodd" clip-rule="evenodd" d="M31.3268 26.6408C30.4388 29.4968 28.2255 31.4741 25.2802 31.9101C20.7855 32.5755 16.3722 29.1675 16.0228 24.6341C15.6602 19.9301 19.3708 16.0008 24.0015 16.0008C25.0722 16.0008 26.0935 16.2115 27.0268 16.5928C27.3508 16.7248 27.7175 16.6115 27.8828 16.3048L29.7962 12.7755C29.9775 12.4381 29.8468 12.0035 29.4975 11.8461C27.8215 11.0888 25.9628 10.6675 24.0055 10.6675C16.5095 10.6675 10.4575 16.8488 10.6722 24.3915C10.8682 31.2728 16.5482 37.0301 23.4242 37.3221C30.8188 37.6341 36.9522 31.9275 37.3242 24.6968C37.3388 24.4328 37.3335 22.8955 37.3282 21.9941C37.3268 21.6261 37.0282 21.3341 36.6615 21.3341H24.6628C24.2948 21.3341 23.9962 21.6315 23.9962 22.0008V25.9741C23.9962 26.3408 24.2948 26.6408 24.6628 26.6408H31.3268Z" fill="white"/>
</mask>
<g mask="url(#mask0_1832_7233)">
<rect x="8" y="8" width="32" height="32" fill="white"/>
</g>
</svg>
