<svg width="142" height="29" viewBox="0 0 142 29" fill="none" xmlns="http://www.w3.org/2000/svg">
<path d="M17.1441 1.45627V21.0003H13.2241V12.6843H4.85213V21.0003H0.932129V1.45627H4.85213V9.49227H13.2241V1.45627H17.1441Z" fill="#B8BDC9"/>
<path d="M27.8904 21.2523C26.3971 21.2523 25.0531 20.9256 23.8584 20.2723C22.6638 19.6003 21.7211 18.6576 21.0304 17.4443C20.3584 16.2309 20.0224 14.8309 20.0224 13.2443C20.0224 11.6576 20.3678 10.2576 21.0584 9.04427C21.7678 7.83094 22.7291 6.89761 23.9424 6.24427C25.1558 5.57227 26.5091 5.23627 28.0024 5.23627C29.4958 5.23627 30.8491 5.57227 32.0624 6.24427C33.2758 6.89761 34.2278 7.83094 34.9184 9.04427C35.6278 10.2576 35.9824 11.6576 35.9824 13.2443C35.9824 14.8309 35.6184 16.2309 34.8904 17.4443C34.1811 18.6576 33.2104 19.6003 31.9784 20.2723C30.7651 20.9256 29.4024 21.2523 27.8904 21.2523ZM27.8904 17.8363C28.5998 17.8363 29.2624 17.6683 29.8784 17.3323C30.5131 16.9776 31.0171 16.4549 31.3904 15.7643C31.7638 15.0736 31.9504 14.2336 31.9504 13.2443C31.9504 11.7696 31.5584 10.6403 30.7744 9.85627C30.0091 9.05361 29.0664 8.65227 27.9464 8.65227C26.8264 8.65227 25.8838 9.05361 25.1184 9.85627C24.3718 10.6403 23.9984 11.7696 23.9984 13.2443C23.9984 14.7189 24.3624 15.8576 25.0904 16.6603C25.8371 17.4443 26.7704 17.8363 27.8904 17.8363Z" fill="#B8BDC9"/>
<path d="M53.5019 5.48827V21.0003H49.5539V19.0403C49.0499 19.7123 48.3872 20.2443 47.5659 20.6363C46.7632 21.0096 45.8859 21.1963 44.9339 21.1963C43.7205 21.1963 42.6472 20.9443 41.7139 20.4403C40.7806 19.9176 40.0432 19.1616 39.5019 18.1723C38.9792 17.1643 38.7179 15.9696 38.7179 14.5883V5.48827H42.6379V14.0283C42.6379 15.2603 42.9459 16.2123 43.5619 16.8843C44.1779 17.5376 45.0179 17.8643 46.0819 17.8643C47.1645 17.8643 48.0139 17.5376 48.6299 16.8843C49.2459 16.2123 49.5539 15.2603 49.5539 14.0283V5.48827H53.5019Z" fill="#B8BDC9"/>
<path d="M61.2896 7.89627C61.7936 7.07494 62.4469 6.43094 63.2496 5.96427C64.0709 5.49761 65.0043 5.26427 66.0496 5.26427V9.38027H65.0136C63.7816 9.38027 62.8483 9.66961 62.2136 10.2483C61.5976 10.8269 61.2896 11.8349 61.2896 13.2723V21.0003H57.3696V5.48827H61.2896V7.89627Z" fill="#B8BDC9"/>
<path d="M74.7659 5.23627C75.9232 5.23627 76.9406 5.46961 77.8179 5.93627C78.6952 6.38427 79.3859 6.97227 79.8899 7.70027V5.48827H83.8379V21.1123C83.8379 22.5496 83.5486 23.8283 82.9699 24.9483C82.3912 26.0869 81.5232 26.9829 80.3659 27.6363C79.2086 28.3083 77.8086 28.6443 76.1659 28.6443C73.9632 28.6443 72.1526 28.1309 70.7339 27.1043C69.3339 26.0776 68.5406 24.6776 68.3539 22.9043H72.2459C72.4512 23.6136 72.8899 24.1736 73.5619 24.5843C74.2526 25.0136 75.0832 25.2283 76.0539 25.2283C77.1926 25.2283 78.1166 24.8829 78.8259 24.1923C79.5352 23.5203 79.8899 22.4936 79.8899 21.1123V18.7043C79.3859 19.4323 78.6859 20.0389 77.7899 20.5243C76.9126 21.0096 75.9046 21.2523 74.7659 21.2523C73.4592 21.2523 72.2646 20.9163 71.1819 20.2443C70.0992 19.5723 69.2406 18.6296 68.6059 17.4163C67.9899 16.1843 67.6819 14.7749 67.6819 13.1883C67.6819 11.6203 67.9899 10.2296 68.6059 9.01627C69.2406 7.80294 70.0899 6.86961 71.1539 6.21627C72.2366 5.56294 73.4406 5.23627 74.7659 5.23627ZM79.8899 13.2443C79.8899 12.2923 79.7032 11.4803 79.3299 10.8083C78.9566 10.1176 78.4526 9.59494 77.8179 9.24027C77.1832 8.86694 76.5019 8.68027 75.7739 8.68027C75.0459 8.68027 74.3739 8.85761 73.7579 9.21227C73.1419 9.56694 72.6379 10.0896 72.2459 10.7803C71.8726 11.4523 71.6859 12.2549 71.6859 13.1883C71.6859 14.1216 71.8726 14.9429 72.2459 15.6523C72.6379 16.3429 73.1419 16.8749 73.7579 17.2483C74.3926 17.6216 75.0646 17.8083 75.7739 17.8083C76.5019 17.8083 77.1832 17.6309 77.8179 17.2763C78.4526 16.9029 78.9566 16.3803 79.3299 15.7083C79.7032 15.0176 79.8899 14.1963 79.8899 13.2443Z" fill="#B8BDC9"/>
<path d="M91.5864 0.280273V21.0003H87.6664V0.280273H91.5864Z" fill="#B8BDC9"/>
<path d="M94.4514 13.1883C94.4514 11.6203 94.7594 10.2296 95.3754 9.01627C96.0101 7.80294 96.8594 6.86961 97.9234 6.21627C99.0061 5.56294 100.21 5.23627 101.535 5.23627C102.693 5.23627 103.701 5.46961 104.559 5.93627C105.437 6.40294 106.137 6.99094 106.659 7.70027V5.48827H110.607V21.0003H106.659V18.7323C106.155 19.4603 105.455 20.0669 104.559 20.5523C103.682 21.0189 102.665 21.2523 101.507 21.2523C100.201 21.2523 99.0061 20.9163 97.9234 20.2443C96.8594 19.5723 96.0101 18.6296 95.3754 17.4163C94.7594 16.1843 94.4514 14.7749 94.4514 13.1883ZM106.659 13.2443C106.659 12.2923 106.473 11.4803 106.099 10.8083C105.726 10.1176 105.222 9.59494 104.587 9.24027C103.953 8.86694 103.271 8.68027 102.543 8.68027C101.815 8.68027 101.143 8.85761 100.527 9.21227C99.9114 9.56694 99.4074 10.0896 99.0154 10.7803C98.6421 11.4523 98.4554 12.2549 98.4554 13.1883C98.4554 14.1216 98.6421 14.9429 99.0154 15.6523C99.4074 16.3429 99.9114 16.8749 100.527 17.2483C101.162 17.6216 101.834 17.8083 102.543 17.8083C103.271 17.8083 103.953 17.6309 104.587 17.2763C105.222 16.9029 105.726 16.3803 106.099 15.7083C106.473 15.0176 106.659 14.1963 106.659 13.2443Z" fill="#B8BDC9"/>
<path d="M120.372 21.2523C119.103 21.2523 117.964 21.0283 116.956 20.5803C115.948 20.1136 115.145 19.4883 114.548 18.7043C113.969 17.9203 113.652 17.0523 113.596 16.1003H117.544C117.619 16.6976 117.908 17.1923 118.412 17.5843C118.935 17.9763 119.579 18.1723 120.344 18.1723C121.091 18.1723 121.669 18.0229 122.08 17.7243C122.509 17.4256 122.724 17.0429 122.724 16.5763C122.724 16.0723 122.463 15.6989 121.94 15.4563C121.436 15.1949 120.624 14.9149 119.504 14.6163C118.347 14.3363 117.395 14.0469 116.648 13.7483C115.92 13.4496 115.285 12.9923 114.744 12.3763C114.221 11.7603 113.96 10.9296 113.96 9.88427C113.96 9.02561 114.203 8.24161 114.688 7.53227C115.192 6.82294 115.901 6.26294 116.816 5.85227C117.749 5.44161 118.841 5.23627 120.092 5.23627C121.94 5.23627 123.415 5.70294 124.516 6.63627C125.617 7.55094 126.224 8.79227 126.336 10.3603H122.584C122.528 9.74427 122.267 9.25894 121.8 8.90427C121.352 8.53094 120.745 8.34427 119.98 8.34427C119.271 8.34427 118.72 8.47494 118.328 8.73627C117.955 8.99761 117.768 9.36161 117.768 9.82827C117.768 10.3509 118.029 10.7523 118.552 11.0323C119.075 11.2936 119.887 11.5643 120.988 11.8443C122.108 12.1243 123.032 12.4136 123.76 12.7123C124.488 13.0109 125.113 13.4776 125.636 14.1123C126.177 14.7283 126.457 15.5496 126.476 16.5763C126.476 17.4723 126.224 18.2749 125.72 18.9843C125.235 19.6936 124.525 20.2536 123.592 20.6643C122.677 21.0563 121.604 21.2523 120.372 21.2523Z" fill="#B8BDC9"/>
<path d="M135.63 21.2523C134.36 21.2523 133.222 21.0283 132.214 20.5803C131.206 20.1136 130.403 19.4883 129.806 18.7043C129.227 17.9203 128.91 17.0523 128.854 16.1003H132.802C132.876 16.6976 133.166 17.1923 133.67 17.5843C134.192 17.9763 134.836 18.1723 135.602 18.1723C136.348 18.1723 136.927 18.0229 137.338 17.7243C137.767 17.4256 137.982 17.0429 137.982 16.5763C137.982 16.0723 137.72 15.6989 137.198 15.4563C136.694 15.1949 135.882 14.9149 134.762 14.6163C133.604 14.3363 132.652 14.0469 131.906 13.7483C131.178 13.4496 130.543 12.9923 130.002 12.3763C129.479 11.7603 129.218 10.9296 129.218 9.88427C129.218 9.02561 129.46 8.24161 129.946 7.53227C130.45 6.82294 131.159 6.26294 132.074 5.85227C133.007 5.44161 134.099 5.23627 135.35 5.23627C137.198 5.23627 138.672 5.70294 139.774 6.63627C140.875 7.55094 141.482 8.79227 141.594 10.3603H137.842C137.786 9.74427 137.524 9.25894 137.058 8.90427C136.61 8.53094 136.003 8.34427 135.238 8.34427C134.528 8.34427 133.978 8.47494 133.586 8.73627C133.212 8.99761 133.026 9.36161 133.026 9.82827C133.026 10.3509 133.287 10.7523 133.81 11.0323C134.332 11.2936 135.144 11.5643 136.246 11.8443C137.366 12.1243 138.29 12.4136 139.018 12.7123C139.746 13.0109 140.371 13.4776 140.894 14.1123C141.435 14.7283 141.715 15.5496 141.734 16.5763C141.734 17.4723 141.482 18.2749 140.978 18.9843C140.492 19.6936 139.783 20.2536 138.85 20.6643C137.935 21.0563 136.862 21.2523 135.63 21.2523Z" fill="#B8BDC9"/>
</svg>
