<svg width="88" height="28" viewBox="0 0 88 28" fill="none" xmlns="http://www.w3.org/2000/svg">
<path d="M3.29197 17.424H9.87197V20H0.0999756V0.540039H3.29197V17.424Z" fill="#B8BDC9"/>
<path d="M11.4774 12.216C11.4774 10.6667 11.7947 9.29471 12.4294 8.10004C13.0827 6.90537 13.96 5.98137 15.0614 5.32804C16.1814 4.65604 17.4134 4.32004 18.7574 4.32004C19.9707 4.32004 21.0254 4.56271 21.9214 5.04804C22.836 5.51471 23.564 6.10271 24.1054 6.81204V4.57204H27.3254V20H24.1054V17.704C23.564 18.432 22.8267 19.0387 21.8934 19.524C20.96 20.0094 19.896 20.252 18.7014 20.252C17.376 20.252 16.1627 19.916 15.0614 19.244C13.96 18.5534 13.0827 17.6014 12.4294 16.388C11.7947 15.156 11.4774 13.7654 11.4774 12.216ZM24.1054 12.272C24.1054 11.208 23.8814 10.284 23.4334 9.50004C23.004 8.71604 22.4347 8.11871 21.7254 7.70804C21.016 7.29737 20.2507 7.09204 19.4294 7.09204C18.608 7.09204 17.8427 7.29737 17.1334 7.70804C16.424 8.10004 15.8454 8.68804 15.3974 9.47204C14.968 10.2374 14.7534 11.152 14.7534 12.216C14.7534 13.28 14.968 14.2134 15.3974 15.016C15.8454 15.8187 16.424 16.4347 17.1334 16.864C17.8614 17.2747 18.6267 17.48 19.4294 17.48C20.2507 17.48 21.016 17.2747 21.7254 16.864C22.4347 16.4534 23.004 15.856 23.4334 15.072C23.8814 14.2694 24.1054 13.336 24.1054 12.272Z" fill="#B8BDC9"/>
<path d="M45.4059 4.57204L35.9419 27.252H32.6379L35.7739 19.748L29.6979 4.57204H33.2539L37.5939 16.332L42.1019 4.57204H45.4059Z" fill="#B8BDC9"/>
<path d="M61.9548 11.908C61.9548 12.4867 61.9175 13.0094 61.8428 13.476H50.0548C50.1481 14.708 50.6055 15.6974 51.4268 16.444C52.2481 17.1907 53.2561 17.564 54.4508 17.564C56.1681 17.564 57.3815 16.8454 58.0908 15.408H61.5348C61.0681 16.8267 60.2188 17.9934 58.9868 18.908C57.7735 19.804 56.2615 20.252 54.4508 20.252C52.9761 20.252 51.6508 19.9254 50.4748 19.272C49.3175 18.6 48.4028 17.6667 47.7308 16.472C47.0775 15.2587 46.7508 13.8587 46.7508 12.272C46.7508 10.6854 47.0681 9.29471 47.7028 8.10004C48.3561 6.88671 49.2615 5.95337 50.4188 5.30004C51.5948 4.64671 52.9388 4.32004 54.4508 4.32004C55.9068 4.32004 57.2041 4.63737 58.3428 5.27204C59.4815 5.90671 60.3681 6.80271 61.0028 7.96004C61.6375 9.09871 61.9548 10.4147 61.9548 11.908ZM58.6228 10.9C58.6041 9.72404 58.1841 8.78137 57.3628 8.07204C56.5415 7.36271 55.5241 7.00804 54.3108 7.00804C53.2095 7.00804 52.2668 7.36271 51.4828 8.07204C50.6988 8.76271 50.2321 9.70537 50.0828 10.9H58.6228Z" fill="#B8BDC9"/>
<path d="M68.2881 6.81204C68.7547 6.02804 69.3707 5.42137 70.1361 4.99204C70.9201 4.54404 71.8441 4.32004 72.9081 4.32004V7.62404H72.0961C70.8454 7.62404 69.8934 7.94137 69.2401 8.57604C68.6054 9.21071 68.2881 10.312 68.2881 11.88V20H65.0961V4.57204H68.2881V6.81204Z" fill="#B8BDC9"/>
<path d="M81.4421 20.252C80.2288 20.252 79.1368 20.0374 78.1661 19.608C77.2141 19.16 76.4581 18.5627 75.8981 17.816C75.3381 17.0507 75.0395 16.2014 75.0021 15.268H78.3061C78.3621 15.9214 78.6701 16.472 79.2301 16.92C79.8088 17.3494 80.5275 17.564 81.3861 17.564C82.2821 17.564 82.9728 17.396 83.4581 17.06C83.9621 16.7054 84.2141 16.2574 84.2141 15.716C84.2141 15.1374 83.9341 14.708 83.3741 14.428C82.8328 14.148 81.9648 13.84 80.7701 13.504C79.6128 13.1867 78.6701 12.8787 77.9421 12.58C77.2141 12.2814 76.5795 11.824 76.0381 11.208C75.5155 10.592 75.2541 9.78004 75.2541 8.77204C75.2541 7.95071 75.4968 7.20404 75.9821 6.53204C76.4675 5.84137 77.1582 5.30004 78.0542 4.90804C78.9688 4.51604 80.0141 4.32004 81.1901 4.32004C82.9448 4.32004 84.3541 4.76804 85.4181 5.66404C86.5008 6.54137 87.0795 7.74537 87.1541 9.27604H83.9621C83.9061 8.58537 83.6261 8.03471 83.1221 7.62404C82.6181 7.21337 81.9368 7.00804 81.0781 7.00804C80.2381 7.00804 79.5941 7.16671 79.1461 7.48404C78.6981 7.80137 78.4741 8.22137 78.4741 8.74404C78.4741 9.15471 78.6235 9.50004 78.9221 9.78004C79.2208 10.06 79.5848 10.284 80.0141 10.452C80.4435 10.6014 81.0781 10.7974 81.9181 11.04C83.0381 11.3387 83.9528 11.6467 84.6621 11.964C85.3901 12.2627 86.0155 12.7107 86.5381 13.308C87.0608 13.9054 87.3315 14.6987 87.3501 15.688C87.3501 16.5654 87.1075 17.3494 86.6221 18.04C86.1368 18.7307 85.4461 19.272 84.5501 19.664C83.6728 20.056 82.6368 20.252 81.4421 20.252Z" fill="#B8BDC9"/>
</svg>
