<svg width="44" height="44" viewBox="0 0 44 44" fill="none" xmlns="http://www.w3.org/2000/svg">
<path fill-rule="evenodd" clip-rule="evenodd" d="M22 34.4667C28.8851 34.4667 34.4667 28.8851 34.4667 22C34.4667 15.1148 28.8851 9.53333 22 9.53333C15.1148 9.53333 9.53333 15.1148 9.53333 22C9.53333 28.8851 15.1148 34.4667 22 34.4667ZM22 44C34.1503 44 44 34.1503 44 22C44 9.84974 34.1503 0 22 0C9.84973 0 0 9.84974 0 22C0 34.1503 9.84973 44 22 44Z" fill="#B8BDC9"/>
<path d="M22.2517 22.4814C24.5427 20.1903 28.2573 20.1903 30.5484 22.4814L41.9564 33.8894C44.2474 36.1804 44.2474 39.895 41.9564 42.1861V42.1861C39.6653 44.4772 35.9507 44.4772 33.6597 42.1861L22.2517 30.7781C19.9606 28.487 19.9606 24.7724 22.2517 22.4814V22.4814Z" fill="#B8BDC9"/>
<path d="M25.4548 33.9816L32.7002 41.2269C36.1754 39.2887 39.0707 36.4357 41.0603 32.9936L33.8743 25.8076C32.6121 29.747 29.4439 32.8334 25.4548 33.9816Z" fill="white"/>
</svg>
