<svg width="130" height="28" viewBox="0 0 130 28" fill="none" xmlns="http://www.w3.org/2000/svg">
<path d="M22.52 25.0999C21.8854 25.8839 21.1107 26.4812 20.196 26.8919C19.3 27.3025 18.3107 27.5079 17.228 27.5079C15.772 27.5079 14.456 27.1905 13.28 26.5559C12.104 25.9399 10.76 24.8385 9.24804 23.2519C7.47471 23.0279 5.88804 22.4585 4.48804 21.5439C3.10671 20.6292 2.02404 19.4532 1.24004 18.0159C0.474708 16.5599 0.092041 14.9545 0.092041 13.1999C0.092041 11.2772 0.549374 9.55054 1.46404 8.01987C2.39737 6.47053 3.67604 5.2572 5.30004 4.37987C6.94271 3.50253 8.78138 3.06387 10.816 3.06387C12.8507 3.06387 14.68 3.50253 16.304 4.37987C17.928 5.2572 19.2067 6.47053 20.14 8.01987C21.0734 9.55054 21.54 11.2772 21.54 13.1999C21.54 15.4772 20.896 17.4745 19.608 19.1919C18.3387 20.9092 16.6494 22.1039 14.54 22.7759C15.0067 23.2612 15.4547 23.6065 15.884 23.8119C16.332 24.0359 16.808 24.1479 17.312 24.1479C18.5254 24.1479 19.5894 23.6625 20.504 22.6919L22.52 25.0999ZM4.68404 13.1999C4.68404 14.4132 4.94537 15.4959 5.46804 16.4479C6.00938 17.3999 6.74671 18.1465 7.68004 18.6879C8.61337 19.2105 9.65871 19.4719 10.816 19.4719C11.9734 19.4719 13.0187 19.2105 13.952 18.6879C14.8854 18.1465 15.6134 17.3999 16.136 16.4479C16.6774 15.4959 16.948 14.4132 16.948 13.1999C16.948 11.9865 16.6774 10.9039 16.136 9.95187C15.6134 8.99987 14.8854 8.26254 13.952 7.73987C13.0187 7.19854 11.9734 6.92787 10.816 6.92787C9.65871 6.92787 8.61337 7.19854 7.68004 7.73987C6.74671 8.26254 6.00938 8.99987 5.46804 9.95187C4.94537 10.9039 4.68404 11.9865 4.68404 13.1999Z" fill="#B8BDC9"/>
<path d="M39.817 7.93587V22.9999H35.673V21.2079C35.0944 21.8612 34.4037 22.3652 33.601 22.7199C32.7984 23.0559 31.9304 23.2239 30.997 23.2239C29.0184 23.2239 27.4504 22.6545 26.293 21.5159C25.1357 20.3772 24.557 18.6879 24.557 16.4479V7.93587H28.925V15.8039C28.925 18.2305 29.9424 19.4439 31.977 19.4439C33.0224 19.4439 33.8624 19.1079 34.497 18.4359C35.1317 17.7452 35.449 16.7279 35.449 15.3839V7.93587H39.817Z" fill="#B8BDC9"/>
<path d="M51.0317 23.2239C49.445 23.2239 48.017 22.8972 46.7477 22.2439C45.497 21.5719 44.517 20.6479 43.8077 19.4719C43.0984 18.2959 42.7437 16.9612 42.7437 15.4679C42.7437 13.9745 43.0984 12.6399 43.8077 11.4639C44.517 10.2879 45.497 9.3732 46.7477 8.71987C48.017 8.04787 49.445 7.71187 51.0317 7.71187C52.6184 7.71187 54.037 8.04787 55.2877 8.71987C56.5384 9.3732 57.5184 10.2879 58.2277 11.4639C58.937 12.6399 59.2917 13.9745 59.2917 15.4679C59.2917 16.9612 58.937 18.2959 58.2277 19.4719C57.5184 20.6479 56.5384 21.5719 55.2877 22.2439C54.037 22.8972 52.6184 23.2239 51.0317 23.2239ZM51.0317 19.6399C52.1517 19.6399 53.0664 19.2665 53.7757 18.5199C54.5037 17.7545 54.8677 16.7372 54.8677 15.4679C54.8677 14.1985 54.5037 13.1905 53.7757 12.4439C53.0664 11.6785 52.1517 11.2959 51.0317 11.2959C49.9117 11.2959 48.9877 11.6785 48.2597 12.4439C47.5317 13.1905 47.1677 14.1985 47.1677 15.4679C47.1677 16.7372 47.5317 17.7545 48.2597 18.5199C48.9877 19.2665 49.9117 19.6399 51.0317 19.6399Z" fill="#B8BDC9"/>
<path d="M71.9274 22.2719C71.498 22.5892 70.966 22.8319 70.3314 22.9999C69.7154 23.1492 69.062 23.2239 68.3714 23.2239C66.5794 23.2239 65.1887 22.7665 64.1993 21.8519C63.2287 20.9372 62.7434 19.5932 62.7434 17.8199V11.6319H60.4194V8.27187H62.7434V4.60387H67.1114V8.27187H70.8633V11.6319H67.1114V17.7639C67.1114 18.3985 67.27 18.8932 67.5873 19.2479C67.9233 19.5839 68.39 19.7519 68.9874 19.7519C69.678 19.7519 70.266 19.5652 70.7514 19.1919L71.9274 22.2719Z" fill="#B8BDC9"/>
<path d="M74.3793 7.93587H78.7473V22.9999H74.3793V7.93587ZM76.5633 5.83587C75.7606 5.83587 75.1073 5.60253 74.6033 5.13587C74.0993 4.6692 73.8473 4.09053 73.8473 3.39987C73.8473 2.7092 74.0993 2.13053 74.6033 1.66387C75.1073 1.1972 75.7606 0.963867 76.5633 0.963867C77.366 0.963867 78.0193 1.18787 78.5233 1.63587C79.0273 2.08387 79.2793 2.64387 79.2793 3.31587C79.2793 4.04387 79.0273 4.65053 78.5233 5.13587C78.0193 5.60253 77.366 5.83587 76.5633 5.83587Z" fill="#B8BDC9"/>
<path d="M97.5572 15.5239C97.5572 15.5799 97.5292 15.9719 97.4732 16.6999H86.0772C86.2825 17.6332 86.7679 18.3705 87.5332 18.9119C88.2985 19.4532 89.2505 19.7239 90.3892 19.7239C91.1732 19.7239 91.8639 19.6119 92.4612 19.3879C93.0772 19.1452 93.6465 18.7719 94.1692 18.2679L96.4932 20.7879C95.0745 22.4119 93.0025 23.2239 90.2772 23.2239C88.5785 23.2239 87.0759 22.8972 85.7692 22.2439C84.4625 21.5719 83.4545 20.6479 82.7452 19.4719C82.0359 18.2959 81.6812 16.9612 81.6812 15.4679C81.6812 13.9932 82.0265 12.6679 82.7172 11.4919C83.4265 10.2972 84.3879 9.3732 85.6012 8.71987C86.8332 8.04787 88.2052 7.71187 89.7172 7.71187C91.1919 7.71187 92.5265 8.0292 93.7212 8.66387C94.9159 9.29854 95.8492 10.2132 96.5212 11.4079C97.2119 12.5839 97.5572 13.9559 97.5572 15.5239ZM89.7452 11.0159C88.7559 11.0159 87.9252 11.2959 87.2532 11.8559C86.5812 12.4159 86.1705 13.1812 86.0212 14.1519H93.4412C93.2919 13.1999 92.8812 12.4439 92.2092 11.8839C91.5372 11.3052 90.7159 11.0159 89.7452 11.0159Z" fill="#B8BDC9"/>
<path d="M109.621 7.71187C111.488 7.71187 112.991 8.27187 114.129 9.39187C115.287 10.5119 115.865 12.1732 115.865 14.3759V22.9999H111.497V15.0479C111.497 13.8532 111.236 12.9665 110.713 12.3879C110.191 11.7905 109.435 11.4919 108.445 11.4919C107.344 11.4919 106.467 11.8372 105.813 12.5279C105.16 13.1999 104.833 14.2079 104.833 15.5519V22.9999H100.465V7.93587H104.637V9.69987C105.216 9.0652 105.935 8.57987 106.793 8.24387C107.652 7.8892 108.595 7.71187 109.621 7.71187Z" fill="#B8BDC9"/>
<path d="M129.541 22.2719C129.111 22.5892 128.579 22.8319 127.945 22.9999C127.329 23.1492 126.675 23.2239 125.985 23.2239C124.193 23.2239 122.802 22.7665 121.813 21.8519C120.842 20.9372 120.357 19.5932 120.357 17.8199V11.6319H118.033V8.27187H120.357V4.60387H124.725V8.27187H128.477V11.6319H124.725V17.7639C124.725 18.3985 124.883 18.8932 125.201 19.2479C125.537 19.5839 126.003 19.7519 126.601 19.7519C127.291 19.7519 127.879 19.5652 128.365 19.1919L129.541 22.2719Z" fill="#B8BDC9"/>
</svg>
